<svg width="96" height="84" viewBox="0 0 96 84" fill="none" xmlns="http://www.w3.org/2000/svg">
<g clip-path="url(#clip0_326_85)">
<path fill-rule="evenodd" clip-rule="evenodd" d="M45.3077 1.78838e-05C45.873 -0.00731166 47.749 2.24042 47.8415 2.88542C48.0908 4.59564 47.032 4.5199 46.8778 5.59002C46.8342 5.89786 47.1348 6.11042 47.3276 6.32542C47.7233 6.77007 48.7255 8.44121 49.0956 8.63666C49.6815 8.94695 52.6368 8.60246 53.5388 8.74172C54.6182 8.90786 55.6538 9.23769 56.7152 9.46735C58.5706 9.86803 60.4517 10.1221 62.302 10.4226C63.3171 10.5888 65.7096 11.1507 66.6553 10.8795C67.0921 10.7549 67.4828 8.91519 68.7266 8.62445C69.7905 9.04956 70.7156 10.3078 70.2787 11.4097C70.1066 11.847 69.7031 12.1573 69.4872 12.5726C69.7853 13.6892 70.7799 15.3921 71.3401 16.4817C72.5762 18.8858 73.6915 21.478 74.65 23.997C74.9173 24.6981 76.1379 26.6429 76.0968 27.2195C76.0557 27.7839 75.3876 28.3727 74.9944 28.7514C73.5527 30.1464 70.8904 30.745 68.8987 30.7792C67.9042 30.7963 66.4214 30.6962 65.5091 30.3321C64.0315 29.7409 61.734 29.1643 61.3229 27.3905C61.2304 26.9898 61.5927 26.682 61.7263 26.3253C62.1298 25.2576 62.5744 24.2388 63.0832 23.2151C64.2987 20.7646 65.4012 18.2408 66.4317 15.7292C66.8018 14.8228 67.7963 13.5499 67.7346 12.5726C67.2463 11.8421 63.6023 12.0034 62.5615 11.9301C59.3929 11.7126 56.2449 11.5807 53.0506 11.6027C51.9584 11.6076 50.1672 11.373 49.2164 11.9814C48.9414 12.1573 48.006 13.9604 47.9006 14.3024C47.6411 15.1624 47.8287 16.3205 47.8235 17.2147C47.8081 19.306 47.8338 21.395 47.8235 23.4863C47.7978 30.381 47.7927 37.2756 47.8133 44.1703C47.821 46.1248 47.8467 48.0794 47.8235 50.0339C47.8133 50.6618 48.0445 51.7515 47.7053 52.3183C47.2171 53.1417 45.9912 53.43 45.0841 53.408C43.6707 53.3738 43.0899 51.9274 43.0848 50.85C43.0668 47.8644 43.0796 44.8764 43.0796 41.8908C43.0796 34.5637 43.2184 27.2268 43.1079 19.9022C43.0796 18.1968 43.4009 16.1959 43.0668 14.5272C43 14.1876 42.725 13.9188 42.5965 13.5988C42.4295 13.1859 42.2521 12.3137 41.9335 12.0254C41.4247 11.566 40.1757 11.8226 39.5153 11.7322C36.8169 11.3535 33.728 11.4341 31.0348 11.8104C29.2796 12.0596 27.3291 12.0498 25.5482 12.084C24.8878 12.0962 23.9138 11.8763 23.387 12.3283C23.2971 12.8829 23.8316 13.7551 24.1117 14.2535C24.3019 15.4116 25.0394 16.6747 25.5662 17.7277C26.5145 19.6163 28 23.5 28 23.5C28 23.5 29.9144 26.4866 29.7987 27.3954C29.7293 27.928 29.1434 28.3825 28.8376 28.7929C28.5215 29.0177 28.2054 29.24 27.8893 29.4648C27.4422 29.5674 27.0876 29.8191 26.6687 29.9681C25.5045 30.381 24.1374 30.6302 22.8987 30.6864C21.8657 30.7328 20.6553 30.6595 19.6453 30.4372C19.1905 30.337 18.7998 30.0707 18.3219 30.0316C17.4327 29.4526 14.9528 28.4753 14.7549 27.2904C14.6958 26.9459 16.0398 24.488 16.284 23.9945C17.5663 21.4267 18.53 18.7026 19.8304 16.1348C20.0693 15.6633 21.4545 12.8658 21.4493 12.5751C21.4391 12.1377 20.8609 11.8446 20.6733 11.4756C20.2749 10.7085 20.5833 9.68723 21.2772 9.1986C22.1869 8.56093 23.2097 8.72951 23.793 9.72632C23.9755 10.0391 23.8855 10.5937 24.1939 10.8135C24.5486 11.0676 25.7718 10.8184 26.2138 10.7818C29.624 10.5155 32.9596 9.58462 36.3312 9.07888C36.6885 9.02513 37.0174 8.84189 37.3772 8.80769C38.4282 8.70507 39.5744 8.62933 40.6306 8.65377C41.0083 8.66354 41.7125 8.88343 42.0157 8.63911C42.3755 8.34593 42.5117 7.83774 42.7687 7.4786C43.1362 6.9582 43.8249 6.53553 44.123 5.99803C44.1949 5.8661 44.2078 5.71218 44.1898 5.56803C44.069 4.48814 42.7738 4.35377 43.2441 2.63865C43.5499 1.51479 44.9402 1.08968 45.3077 1.78838e-05ZM21.0485 16.1934C19.8483 18.9029 18.6482 21.6124 17.4481 24.3219C17.2734 24.7104 17.096 25.0964 16.9213 25.4848C16.708 25.9393 16.3174 26.4475 16.4741 26.9581C17.1243 27.349 18.5326 27.0925 19.301 27.1145C21.4416 27.1706 23.5823 27.1829 25.7255 27.1096C26.4554 27.0827 27.5527 27.2952 28.208 26.9825C28.5087 26.2789 27.6247 25.1697 27.3445 24.5222C26.4605 22.4895 25.6716 20.3786 24.6822 18.3825C24.307 17.5372 23.9292 16.6918 23.554 15.8465C23.3639 15.5289 23.0606 14.94 22.9835 14.8985C22.9064 14.857 22.8114 15.8221 22.8345 16.2374C22.7533 17.2034 23.0306 18.6632 22.8422 19.5088C22.5929 19.5381 22.3436 19.5675 22.0944 19.5943C21.7574 18.7105 21.6986 14.9156 21.6986 14.9156C21.6986 14.9156 21.0793 15.6633 21.0485 16.1934ZM68.7754 20.2467C68.6675 20.2125 68.557 20.1807 68.449 20.1465C68.413 18.749 68.3745 17.3515 68.3385 15.9516C68.2974 15.6559 68.2537 15.3603 68.2126 15.0671C67.786 15.1013 66.8506 17.4101 66.7889 17.9012C65.9331 19.7702 65.0774 21.6417 64.2191 23.5132C63.8721 24.3341 63.5278 25.155 63.1809 25.9759C63.0112 26.3155 62.8057 26.6063 62.9881 26.9727C63.8567 27.371 65.2881 27.1584 66.2415 27.1658C68.4464 27.1877 70.6411 27.1706 72.8383 27.0289C73.3445 26.9947 73.8868 27.0851 74.3802 26.985C74.7066 26.4621 73.7069 24.9425 73.4987 24.2926C72.7535 21.9642 71.3504 19.802 70.5434 17.4761C70.2813 16.7236 69.9961 15.3237 69.2405 14.923C68.8242 15.2235 69.1095 18.3263 69.1146 19.0055C69.1172 19.4746 69.3022 20.0072 68.7754 20.2467ZM87.3424 75.4956C88 76.4875 88 76.8601 87.3424 76.8601C85.3071 76.6548 83.1947 76.7917 81.1466 76.7941C78.181 76.7965 75.2051 76.7428 72.2395 76.8039C71.484 76.8185 68.7368 77.0238 68.1818 76.8137C67.75 76.6524 67.7603 75.9585 67.84 75.6116C67.9993 74.886 68.9219 75.1181 69.4975 75.0033C70.8081 74.7394 72.4451 74.5024 73.3163 73.4127C74.1874 72.3206 72.7149 68.8806 72.5145 67.6248C72.0853 64.9471 71.2604 62.2987 70.6231 59.6503C70.0937 57.4343 69.5772 55.2184 68.9656 53.0366C68.6418 51.8785 68.5158 50.6521 68.1226 49.5135C67.9299 48.9589 67.9248 48.3799 67.7706 47.8229C67.4956 46.8358 67.087 45.8341 66.9148 44.8177C66.8275 44.312 67.0073 43.3152 66.4137 43.1295C66.0359 43.3909 65.8252 43.7696 65.761 44.2045C65.247 44.7933 65.0003 45.6631 64.6302 46.3472C63.9133 47.6641 63.2991 49.0273 62.5795 50.3442C60.9348 53.3664 59.267 56.3984 57.6866 59.4524C57.0595 60.6642 56.5661 61.9444 55.9031 63.1318C54.7929 65.1255 53.914 67.2388 52.8167 69.2398C52.331 70.1267 51.1309 72.0152 50.9562 72.9217C51.0301 75.4211 57.1665 73.8463 56.0098 76.44C55.8061 76.8967 54.2019 76.8454 53.8215 76.843C52.7088 76.8405 51.5935 76.8234 50.4807 76.8137C46.2842 76.7746 42.0851 76.8185 37.8886 76.8381C37.2487 76.8405 34.1032 77.0042 33.8411 76.5645C33.5969 76.1467 33.6766 75.2525 34.2548 75.1254C35.5629 74.8396 39.7877 74.9593 39.4587 72.758C39.2686 71.49 38.3254 70.0412 37.6316 68.9735C36.5317 67.2828 35.4961 65.167 34.5247 63.3737C32.1655 59.0224 29.8681 54.6149 27.3394 50.3369C26.3911 48.7293 25.5791 46.4278 24.4226 45.0156C24.1271 44.4659 23.7982 43.3225 23.2405 43.0415C22.6315 43.386 22.7394 43.904 22.4696 44.461C21.6858 46.0809 20.902 47.9377 20.4291 49.6577C20.0925 50.5006 19.7558 51.341 19.4192 52.1839C18.733 53.8942 18.0495 55.6068 17.3633 57.3195C17.1571 57.6379 16.6733 58.5876 16.9007 58.7268C17.1281 58.8659 18.5137 58.8557 19.044 58.866C20.8994 58.8636 22.7548 58.8489 24.6102 58.8636C25.1987 58.8685 26.8537 58.5777 27.0978 59.2618C27.2315 59.6405 27.2906 61.0771 26.9025 61.2994C26.3465 61.4923 25.1017 61.2682 24.4406 61.385C22.3282 61.3972 20.2133 61.3556 18.1009 61.3874C17.4764 61.3972 16.2017 61.1431 15.7006 61.5584C15.1738 61.9958 15.0813 63.0365 14.7781 63.618C13.6473 65.79 12.8173 68.2137 12.0232 70.5249C11.7379 71.3531 11.4219 72.5943 12.0181 73.3663C13.3749 75.1303 15.5953 74.5342 17.3299 75.145C17.6486 75.6385 17.6486 76.2908 17.3299 76.7868C16.2018 77.0903 8.9097 76.8694 7.50977 76.94C4.50977 76.94 7.00977 76.94 4.00977 76.94C3.34418 76.94 0.21739 77.0653 0.06063 76.4203C-0.0421633 75.9879 -0.075571 75.1889 0.474373 75.0228C1.19907 74.8029 2.00342 74.8884 2.75124 74.649C5.6937 73.7084 7.19449 71.9029 8.56421 69.3522C10.1241 66.4472 11.1469 63.0243 12.4164 59.9801C13.3415 57.7642 14.4003 55.5971 15.3152 53.3713C16.2814 51.0234 17.114 48.6364 18.0726 46.2983C18.5043 45.2404 19.0697 44.224 19.4731 43.1564C20.3469 40.8427 21.4905 38.9101 19.026 37.0582C17.8773 36.1933 16.1761 35.8195 14.7601 35.5752C14.3515 35.5068 13.8838 35.6192 13.4983 35.4726C12.843 35.2209 12.8584 33.9749 13.5317 33.755C14.2821 33.5083 15.5799 33.7623 16.3868 33.7648C18.7844 33.7697 21.1872 33.8308 23.5823 33.7965C24.4817 33.7843 26.2369 33.4521 26.9822 33.9773C27.4139 34.2827 27.6092 35.1916 27.8868 35.6387C28.9867 37.4198 29.9478 39.2717 30.9809 41.0894C33.4607 45.4603 35.8995 49.858 38.4179 54.2118C39.4613 56.0173 40.3556 57.9254 41.4812 59.6869C43.0231 62.1081 44.2823 64.6833 45.6854 67.1753C45.9835 67.7055 46.8984 69.5647 47.3969 69.6307C47.9366 69.2056 48.0959 68.1746 48.4146 67.5687C49.3166 65.8535 50.0876 64.0749 51.0024 62.3744C53.3307 58.0525 55.3737 53.5863 57.6634 49.2423C58.7633 47.1583 60.0123 45.1207 61.0248 43.0025C62.1221 40.7059 63.2143 38.3653 64.5891 36.2055C65.0054 35.5508 65.2085 34.3951 65.8689 33.9236C66.5191 33.4594 68.1124 33.7477 68.8987 33.7501C71.0111 33.7575 73.1235 33.777 75.2359 33.7721C76.0865 33.7792 77.3076 33.618 78.055 33.799C78.6461 33.992 78.7669 34.8569 78.2118 35.1501C77.8803 35.326 77.5128 35.2796 77.1633 35.3748C74.7759 36.0198 72.6327 36.4669 72.4348 39.2033C72.4066 39.6113 72.2241 40.0169 72.2832 40.4249C72.7226 43.4764 73.7095 46.4083 74.4984 49.3865C76.2433 55.9586 78.2683 62.4624 79.8411 69.0834C80.5144 71.9175 81.9432 73.6839 84.9062 74.5268C85.6746 74.7467 86.0098 74.94 87.3424 75.4956Z" fill="#3B3939"/>
</g>
<defs>
<clipPath id="clip0_326_85">
<rect width="96" height="84" fill="white"/>
</clipPath>
</defs>
</svg>
