<svg width="348" height="84" viewBox="0 0 348 84" fill="none" xmlns="http://www.w3.org/2000/svg">
<path fill-rule="evenodd" clip-rule="evenodd" d="M45.3077 1.78838e-05C45.873 -0.00731166 47.749 2.24042 47.8415 2.88542C48.0908 4.59564 47.032 4.5199 46.8778 5.59002C46.8342 5.89786 47.1348 6.11042 47.3276 6.32542C47.7233 6.77007 48.7255 8.44121 49.0956 8.63666C49.6815 8.94695 52.6368 8.60246 53.5388 8.74172C54.6182 8.90786 55.6538 9.23769 56.7152 9.46735C58.5706 9.86803 60.4517 10.1221 62.302 10.4226C63.3171 10.5888 65.7096 11.1507 66.6553 10.8795C67.0921 10.7549 67.4828 8.91519 68.7266 8.62445C69.7905 9.04956 70.7156 10.3078 70.2787 11.4097C70.1066 11.847 69.7031 12.1573 69.4872 12.5726C69.7853 13.6892 70.7799 15.3921 71.3401 16.4817C72.5762 18.8858 73.6915 21.478 74.65 23.997C74.9173 24.6981 76.1379 26.6429 76.0968 27.2195C76.0557 27.7839 75.3876 28.3727 74.9944 28.7514C73.5527 30.1464 70.8904 30.745 68.8987 30.7792C67.9042 30.7963 66.4214 30.6962 65.5091 30.3321C64.0315 29.7409 61.734 29.1643 61.3229 27.3905C61.2304 26.9898 61.5927 26.682 61.7263 26.3253C62.1298 25.2576 62.5744 24.2388 63.0832 23.2151C64.2987 20.7646 65.4012 18.2408 66.4317 15.7292C66.8018 14.8228 67.7963 13.5499 67.7346 12.5726C67.2463 11.8421 63.6023 12.0034 62.5615 11.9301C59.3929 11.7126 56.2449 11.5807 53.0506 11.6027C51.9584 11.6076 50.1672 11.373 49.2164 11.9814C48.9414 12.1573 48.006 13.9604 47.9006 14.3024C47.6411 15.1624 47.8287 16.3205 47.8235 17.2147C47.8081 19.306 47.8338 21.395 47.8235 23.4863C47.7978 30.381 47.7927 37.2756 47.8133 44.1703C47.821 46.1248 47.8467 48.0794 47.8235 50.0339C47.8133 50.6618 48.0445 51.7515 47.7053 52.3183C47.2171 53.1417 45.9912 53.43 45.0841 53.408C43.6707 53.3738 43.0899 51.9274 43.0848 50.85C43.0668 47.8644 43.0796 44.8764 43.0796 41.8908C43.0796 34.5637 43.2184 27.2268 43.1079 19.9022C43.0796 18.1968 43.4009 16.1959 43.0668 14.5272C43 14.1876 42.725 13.9188 42.5965 13.5988C42.4295 13.1859 42.2521 12.3137 41.9335 12.0254C41.4247 11.566 40.1757 11.8226 39.5153 11.7322C36.8169 11.3535 33.728 11.4341 31.0348 11.8104C29.2796 12.0596 27.3291 12.0498 25.5482 12.084C24.8878 12.0962 23.9138 11.8763 23.387 12.3283C23.2971 12.8829 23.8316 13.7551 24.1117 14.2535C24.3019 15.4116 25.0394 16.6747 25.5662 17.7277C26.5145 19.6163 28 23.5 28 23.5C28 23.5 29.9144 26.4866 29.7987 27.3954C29.7293 27.928 29.1434 28.3825 28.8376 28.7929C28.5215 29.0177 28.2054 29.24 27.8893 29.4648C27.4422 29.5674 27.0876 29.8191 26.6687 29.9681C25.5045 30.381 24.1374 30.6302 22.8987 30.6864C21.8657 30.7328 20.6553 30.6595 19.6453 30.4372C19.1905 30.337 18.7998 30.0707 18.3219 30.0316C17.4327 29.4526 14.9528 28.4753 14.7549 27.2904C14.6958 26.9459 16.0398 24.488 16.284 23.9945C17.5663 21.4267 18.53 18.7026 19.8304 16.1348C20.0693 15.6633 21.4545 12.8658 21.4493 12.5751C21.4391 12.1377 20.8609 11.8446 20.6733 11.4756C20.2749 10.7085 20.5833 9.68723 21.2772 9.1986C22.1869 8.56093 23.2097 8.72951 23.793 9.72632C23.9755 10.0391 23.8855 10.5937 24.1939 10.8135C24.5486 11.0676 25.7718 10.8184 26.2138 10.7818C29.624 10.5155 32.9596 9.58462 36.3312 9.07888C36.6885 9.02513 37.0174 8.84189 37.3772 8.80769C38.4282 8.70507 39.5744 8.62933 40.6306 8.65377C41.0083 8.66354 41.7125 8.88343 42.0157 8.63911C42.3755 8.34593 42.5117 7.83774 42.7687 7.4786C43.1362 6.9582 43.8249 6.53553 44.123 5.99803C44.1949 5.8661 44.2078 5.71218 44.1898 5.56803C44.069 4.48814 42.7738 4.35377 43.2441 2.63865C43.5499 1.51479 44.9402 1.08968 45.3077 1.78838e-05ZM21.0485 16.1934C19.8483 18.9029 18.6482 21.6124 17.4481 24.3219C17.2734 24.7104 17.096 25.0964 16.9213 25.4848C16.708 25.9393 16.3174 26.4475 16.4741 26.9581C17.1243 27.349 18.5326 27.0925 19.301 27.1145C21.4416 27.1706 23.5823 27.1829 25.7255 27.1096C26.4554 27.0827 27.5527 27.2952 28.208 26.9825C28.5087 26.2789 27.6247 25.1697 27.3445 24.5222C26.4605 22.4895 25.6716 20.3786 24.6822 18.3825C24.307 17.5372 23.9292 16.6918 23.554 15.8465C23.3639 15.5289 23.0606 14.94 22.9835 14.8985C22.9064 14.857 22.8114 15.8221 22.8345 16.2374C22.7533 17.2034 23.0306 18.6632 22.8422 19.5088C22.5929 19.5381 22.3436 19.5675 22.0944 19.5943C21.7574 18.7105 21.6986 14.9156 21.6986 14.9156C21.6986 14.9156 21.0793 15.6633 21.0485 16.1934ZM68.7754 20.2467C68.6675 20.2125 68.557 20.1807 68.449 20.1465C68.413 18.749 68.3745 17.3515 68.3385 15.9516C68.2974 15.6559 68.2537 15.3603 68.2126 15.0671C67.786 15.1013 66.8506 17.4101 66.7889 17.9012C65.9331 19.7702 65.0774 21.6417 64.2191 23.5132C63.8721 24.3341 63.5278 25.155 63.1809 25.9759C63.0112 26.3155 62.8057 26.6063 62.9881 26.9727C63.8567 27.371 65.2881 27.1584 66.2415 27.1658C68.4464 27.1877 70.6411 27.1706 72.8383 27.0289C73.3445 26.9947 73.8868 27.0851 74.3802 26.985C74.7066 26.4621 73.7069 24.9425 73.4987 24.2926C72.7535 21.9642 71.3504 19.802 70.5434 17.4761C70.2813 16.7236 69.9961 15.3237 69.2405 14.923C68.8242 15.2235 69.1095 18.3263 69.1146 19.0055C69.1172 19.4746 69.3022 20.0072 68.7754 20.2467ZM87.3424 75.4956C88 76.4875 88 76.8601 87.3424 76.8601C85.3071 76.6548 83.1947 76.7917 81.1466 76.7941C78.181 76.7965 75.2051 76.7428 72.2395 76.8039C71.484 76.8185 68.7368 77.0238 68.1818 76.8137C67.75 76.6524 67.7603 75.9585 67.84 75.6116C67.9993 74.886 68.9219 75.1181 69.4975 75.0033C70.8081 74.7394 72.4451 74.5024 73.3163 73.4127C74.1874 72.3206 72.7149 68.8806 72.5145 67.6248C72.0853 64.9471 71.2604 62.2987 70.6231 59.6503C70.0937 57.4343 69.5772 55.2184 68.9656 53.0366C68.6418 51.8785 68.5158 50.6521 68.1226 49.5135C67.9299 48.9589 67.9248 48.3799 67.7706 47.8229C67.4956 46.8358 67.087 45.8341 66.9148 44.8177C66.8275 44.312 67.0073 43.3152 66.4137 43.1295C66.0359 43.3909 65.8252 43.7696 65.761 44.2045C65.247 44.7933 65.0003 45.6631 64.6302 46.3472C63.9133 47.6641 63.2991 49.0273 62.5795 50.3442C60.9348 53.3664 59.267 56.3984 57.6866 59.4524C57.0595 60.6642 56.5661 61.9444 55.9031 63.1318C54.7929 65.1255 53.914 67.2388 52.8167 69.2398C52.331 70.1267 51.1309 72.0152 50.9562 72.9217C51.0301 75.4211 57.1665 73.8463 56.0098 76.44C55.8061 76.8967 54.2019 76.8454 53.8215 76.843C52.7088 76.8405 51.5935 76.8234 50.4807 76.8137C46.2842 76.7746 42.0851 76.8185 37.8886 76.8381C37.2487 76.8405 34.1032 77.0042 33.8411 76.5645C33.5969 76.1467 33.6766 75.2525 34.2548 75.1254C35.5629 74.8396 39.7877 74.9593 39.4587 72.758C39.2686 71.49 38.3254 70.0412 37.6316 68.9735C36.5317 67.2828 35.4961 65.167 34.5247 63.3737C32.1655 59.0224 29.8681 54.6149 27.3394 50.3369C26.3911 48.7293 25.5791 46.4278 24.4226 45.0156C24.1271 44.4659 23.7982 43.3225 23.2405 43.0415C22.6315 43.386 22.7394 43.904 22.4696 44.461C21.6858 46.0809 20.902 47.9377 20.4291 49.6577C20.0925 50.5006 19.7558 51.341 19.4192 52.1839C18.733 53.8942 18.0495 55.6068 17.3633 57.3195C17.1571 57.6379 16.6733 58.5876 16.9007 58.7268C17.1281 58.8659 18.5137 58.8557 19.044 58.866C20.8994 58.8636 22.7548 58.8489 24.6102 58.8636C25.1987 58.8685 26.8537 58.5777 27.0978 59.2618C27.2315 59.6405 27.2906 61.0771 26.9025 61.2994C26.3465 61.4923 25.1017 61.2682 24.4406 61.385C22.3282 61.3972 20.2133 61.3556 18.1009 61.3874C17.4764 61.3972 16.2017 61.1431 15.7006 61.5584C15.1738 61.9958 15.0813 63.0365 14.7781 63.618C13.6473 65.79 12.8173 68.2137 12.0232 70.5249C11.7379 71.3531 11.4219 72.5943 12.0181 73.3663C13.3749 75.1303 15.5953 74.5342 17.3299 75.145C17.6486 75.6385 17.6486 76.2908 17.3299 76.7868C16.2018 77.0903 8.9097 76.8694 7.50977 76.94C4.50977 76.94 7.00977 76.94 4.00977 76.94C3.34418 76.94 0.21739 77.0653 0.06063 76.4203C-0.0421633 75.9879 -0.075571 75.1889 0.474373 75.0228C1.19907 74.8029 2.00342 74.8884 2.75124 74.649C5.6937 73.7084 7.19449 71.9029 8.56421 69.3522C10.1241 66.4472 11.1469 63.0243 12.4164 59.9801C13.3415 57.7642 14.4003 55.5971 15.3152 53.3713C16.2814 51.0234 17.114 48.6364 18.0726 46.2983C18.5043 45.2404 19.0697 44.224 19.4731 43.1564C20.3469 40.8427 21.4905 38.9101 19.026 37.0582C17.8773 36.1933 16.1761 35.8195 14.7601 35.5752C14.3515 35.5068 13.8838 35.6192 13.4983 35.4726C12.843 35.2209 12.8584 33.9749 13.5317 33.755C14.2821 33.5083 15.5799 33.7623 16.3868 33.7648C18.7844 33.7697 21.1872 33.8308 23.5823 33.7965C24.4817 33.7843 26.2369 33.4521 26.9822 33.9773C27.4139 34.2827 27.6092 35.1916 27.8868 35.6387C28.9867 37.4198 29.9478 39.2717 30.9809 41.0894C33.4607 45.4603 35.8995 49.858 38.4179 54.2118C39.4613 56.0173 40.3556 57.9254 41.4812 59.6869C43.0231 62.1081 44.2823 64.6833 45.6854 67.1753C45.9835 67.7055 46.8984 69.5647 47.3969 69.6307C47.9366 69.2056 48.0959 68.1746 48.4146 67.5687C49.3166 65.8535 50.0876 64.0749 51.0024 62.3744C53.3307 58.0525 55.3737 53.5863 57.6634 49.2423C58.7633 47.1583 60.0123 45.1207 61.0248 43.0025C62.1221 40.7059 63.2143 38.3653 64.5891 36.2055C65.0054 35.5508 65.2085 34.3951 65.8689 33.9236C66.5191 33.4594 68.1124 33.7477 68.8987 33.7501C71.0111 33.7575 73.1235 33.777 75.2359 33.7721C76.0865 33.7792 77.3076 33.618 78.055 33.799C78.6461 33.992 78.7669 34.8569 78.2118 35.1501C77.8803 35.326 77.5128 35.2796 77.1633 35.3748C74.7759 36.0198 72.6327 36.4669 72.4348 39.2033C72.4066 39.6113 72.2241 40.0169 72.2832 40.4249C72.7226 43.4764 73.7095 46.4083 74.4984 49.3865C76.2433 55.9586 78.2683 62.4624 79.8411 69.0834C80.5144 71.9175 81.9432 73.6839 84.9062 74.5268C85.6746 74.7467 86.0098 74.94 87.3424 75.4956Z" fill="#3B3939"/>
<path d="M130.987 42.376C130.594 41.2867 130.208 40.1973 129.828 39.108C129.448 38.0187 129.062 36.9357 128.669 35.859C128.289 36.9357 127.909 38.0187 127.529 39.108C127.149 40.1973 126.775 41.2867 126.408 42.376H130.987ZM136.611 47.734C136.611 47.9367 136.516 48.038 136.326 48.038C136.199 48.038 136.06 48.0317 135.908 48.019C135.769 48.019 135.629 48.0127 135.49 48C135.211 47.9873 134.926 47.981 134.635 47.981C134.356 47.981 134.071 47.981 133.78 47.981C133.641 47.981 133.495 47.981 133.343 47.981C133.204 47.981 133.058 47.981 132.906 47.981C132.627 47.981 132.342 47.9937 132.051 48.019C131.76 48.057 131.468 48.076 131.177 48.076C131.088 48.076 131.025 48.0317 130.987 47.943C130.949 47.8417 130.93 47.753 130.93 47.677C130.93 47.6137 130.962 47.5567 131.025 47.506C131.088 47.4553 131.145 47.43 131.196 47.43L132.127 47.449C132.228 47.449 132.336 47.43 132.45 47.392C132.564 47.3413 132.621 47.2527 132.621 47.126C132.621 47.1007 132.577 46.9613 132.488 46.708C132.412 46.442 132.311 46.1253 132.184 45.758C132.057 45.3907 131.924 45.0233 131.785 44.656C131.646 44.276 131.525 43.9467 131.424 43.668C131.323 43.3767 131.253 43.1867 131.215 43.098H126.218C126.18 43.212 126.104 43.4147 125.99 43.706C125.889 43.9973 125.768 44.3267 125.629 44.694C125.49 45.0613 125.357 45.4287 125.23 45.796C125.103 46.1507 124.996 46.461 124.907 46.727C124.831 46.9803 124.793 47.1387 124.793 47.202C124.793 47.3667 124.882 47.468 125.059 47.506C125.249 47.544 125.401 47.563 125.515 47.563C125.654 47.563 125.787 47.5567 125.914 47.544C126.053 47.5187 126.186 47.506 126.313 47.506C126.427 47.506 126.49 47.5503 126.503 47.639C126.528 47.715 126.541 47.7973 126.541 47.886C126.516 47.962 126.471 48.0063 126.408 48.019C126.345 48.0317 126.281 48.038 126.218 48.038C125.851 48.038 125.477 48.0317 125.097 48.019C124.717 48.019 124.343 48.019 123.976 48.019C123.697 48.019 123.419 48.0253 123.14 48.038C122.874 48.0507 122.608 48.057 122.342 48.057C122.152 48.057 122.057 47.9557 122.057 47.753C122.057 47.639 122.114 47.5693 122.228 47.544C122.342 47.5187 122.469 47.5123 122.608 47.525C122.76 47.525 122.868 47.525 122.931 47.525C123.108 47.525 123.254 47.4743 123.368 47.373C123.482 47.2717 123.577 47.1513 123.653 47.012C123.704 46.898 123.824 46.594 124.014 46.1C124.217 45.606 124.457 44.9853 124.736 44.238C125.015 43.4907 125.312 42.6863 125.629 41.825C125.946 40.951 126.256 40.0897 126.56 39.241C126.877 38.3797 127.162 37.588 127.415 36.866C127.668 36.144 127.871 35.5487 128.023 35.08C128.175 34.6113 128.251 34.3453 128.251 34.282C128.251 34.2567 128.238 34.2313 128.213 34.206C128.2 34.168 128.194 34.1363 128.194 34.111C128.194 34.073 128.213 34.0477 128.251 34.035C128.542 33.9717 128.853 33.9337 129.182 33.921C129.511 33.8957 129.822 33.864 130.113 33.826L135.053 47.069C135.091 47.1703 135.167 47.259 135.281 47.335C135.408 47.3983 135.528 47.43 135.642 47.43C135.756 47.43 135.864 47.43 135.965 47.43C136.079 47.4173 136.193 47.411 136.307 47.411C136.446 47.411 136.529 47.4363 136.554 47.487C136.592 47.525 136.611 47.6073 136.611 47.734Z" fill="#3B3939"/>
<path d="M149.121 40.818C149.121 40.2987 149.07 39.7477 148.969 39.165C148.868 38.5697 148.703 37.9997 148.475 37.455C148.247 36.9103 147.943 36.4543 147.563 36.087C147.221 35.745 146.809 35.4537 146.328 35.213C145.859 34.9597 145.384 34.8077 144.903 34.757C144.764 34.7317 144.618 34.719 144.466 34.719C144.314 34.719 144.162 34.719 144.01 34.719C143.098 34.719 142.173 34.738 141.236 34.776V46.385C141.236 46.7397 141.344 46.974 141.559 47.088C141.787 47.202 142.053 47.259 142.357 47.259C142.851 47.259 143.358 47.24 143.877 47.202C144.396 47.164 144.903 47.0753 145.397 46.936C145.891 46.7967 146.341 46.575 146.746 46.271C147.62 45.625 148.234 44.8143 148.589 43.839C148.944 42.8637 149.121 41.8567 149.121 40.818ZM151.458 40.552C151.458 41.806 151.192 42.9967 150.66 44.124C150.128 45.2387 149.317 46.1317 148.228 46.803C147.785 47.0817 147.265 47.3097 146.67 47.487C146.087 47.6517 145.492 47.7783 144.884 47.867C144.276 47.943 143.706 47.981 143.174 47.981C142.731 47.981 142.281 47.9683 141.825 47.943C141.369 47.905 140.913 47.886 140.457 47.886C140.09 47.886 139.716 47.8923 139.336 47.905C138.969 47.9177 138.601 47.9367 138.234 47.962C138.171 47.962 138.101 47.9683 138.025 47.981C137.962 47.981 137.898 47.981 137.835 47.981C137.746 47.981 137.677 47.9493 137.626 47.886C137.575 47.81 137.55 47.734 137.55 47.658C137.55 47.5693 137.613 47.506 137.74 47.468C137.879 47.43 138.031 47.3983 138.196 47.373C138.361 47.335 138.475 47.297 138.538 47.259C138.753 47.1577 138.893 46.9993 138.956 46.784C139.032 46.556 139.07 46.3343 139.07 46.119C139.07 45.4223 139.07 44.7257 139.07 44.029C139.083 43.3323 139.089 42.6357 139.089 41.939C139.089 41.1157 139.083 40.2987 139.07 39.488C139.07 38.6647 139.07 37.8477 139.07 37.037C139.07 36.7963 139.076 36.5557 139.089 36.315C139.102 36.0743 139.095 35.8337 139.07 35.593C139.057 35.4157 139.013 35.2573 138.937 35.118C138.874 34.966 138.741 34.8647 138.538 34.814C138.399 34.7887 138.234 34.7823 138.044 34.795C137.867 34.795 137.702 34.795 137.55 34.795C137.449 34.795 137.347 34.7697 137.246 34.719C137.157 34.6683 137.113 34.5797 137.113 34.453C137.113 34.225 137.246 34.111 137.512 34.111C137.803 34.111 138.095 34.1237 138.386 34.149C138.677 34.1743 138.969 34.187 139.26 34.187C140.197 34.187 141.128 34.1553 142.053 34.092C142.99 34.0287 143.921 33.997 144.846 33.997C146.214 33.997 147.392 34.263 148.38 34.795C149.368 35.3143 150.128 36.0617 150.66 37.037C151.192 38.0123 151.458 39.184 151.458 40.552Z" fill="#3B3939"/>
<path d="M166.549 34.358C166.549 34.51 166.499 34.605 166.397 34.643C166.296 34.6683 166.188 34.681 166.074 34.681C166.024 34.681 165.967 34.681 165.903 34.681C165.853 34.6683 165.796 34.662 165.732 34.662C165.568 34.662 165.409 34.7 165.257 34.776C165.105 34.852 164.998 34.9723 164.934 35.137C164.846 35.365 164.763 35.593 164.687 35.821C164.611 36.0363 164.535 36.258 164.459 36.486L163.433 39.355C162.927 40.799 162.414 42.2493 161.894 43.706C161.388 45.15 160.875 46.594 160.355 48.038L159.462 48.019C159.31 48.019 159.177 47.9937 159.063 47.943C158.962 47.8797 158.88 47.772 158.816 47.62C158.576 47.0627 158.354 46.4927 158.151 45.91C157.949 45.3273 157.74 44.751 157.524 44.181C157.03 42.8637 156.53 41.5463 156.023 40.229C155.517 38.9117 155.023 37.6007 154.541 36.296C154.465 36.0933 154.383 35.8907 154.294 35.688C154.218 35.4727 154.117 35.2827 153.99 35.118C153.826 34.9027 153.661 34.776 153.496 34.738C153.344 34.7 153.142 34.681 152.888 34.681C152.8 34.681 152.705 34.6683 152.603 34.643C152.502 34.6177 152.451 34.5417 152.451 34.415C152.451 34.2883 152.47 34.1997 152.508 34.149C152.546 34.0857 152.629 34.054 152.755 34.054C153.047 34.054 153.332 34.0603 153.61 34.073C153.889 34.0857 154.168 34.092 154.446 34.092C155.016 34.092 155.586 34.0857 156.156 34.073C156.726 34.0603 157.296 34.054 157.866 34.054C157.955 34.054 158.031 34.0793 158.094 34.13C158.158 34.168 158.189 34.2377 158.189 34.339C158.189 34.4783 158.145 34.5733 158.056 34.624C157.968 34.662 157.86 34.681 157.733 34.681C157.607 34.681 157.474 34.6747 157.334 34.662C157.208 34.6493 157.075 34.643 156.935 34.643C156.847 34.643 156.72 34.6557 156.555 34.681C156.391 34.7063 156.308 34.7823 156.308 34.909C156.308 34.9343 156.327 35.004 156.365 35.118C156.403 35.232 156.441 35.346 156.479 35.46C156.517 35.574 156.543 35.65 156.555 35.688C157.125 37.398 157.721 39.1017 158.341 40.799C158.975 42.4837 159.602 44.1683 160.222 45.853C160.843 44.067 161.464 42.281 162.084 40.495C162.718 38.709 163.313 36.9103 163.87 35.099C163.87 35.0863 163.87 35.08 163.87 35.08C163.87 35.0673 163.87 35.0547 163.87 35.042C163.87 34.8647 163.807 34.7507 163.68 34.7C163.566 34.6367 163.44 34.605 163.3 34.605C163.136 34.605 162.977 34.6177 162.825 34.643C162.673 34.6557 162.521 34.662 162.369 34.662C162.306 34.662 162.243 34.6367 162.179 34.586C162.116 34.5353 162.084 34.4783 162.084 34.415C162.084 34.2123 162.122 34.1047 162.198 34.092C162.274 34.0667 162.388 34.054 162.54 34.054C162.87 34.054 163.193 34.0603 163.509 34.073C163.826 34.073 164.143 34.073 164.459 34.073C164.763 34.073 165.067 34.0667 165.371 34.054C165.675 34.0413 165.979 34.035 166.283 34.035C166.385 34.035 166.454 34.0667 166.492 34.13C166.53 34.1933 166.549 34.2693 166.549 34.358Z" fill="#3B3939"/>
<path d="M178.822 40.932C178.822 40.2353 178.746 39.5197 178.594 38.785C178.442 38.0503 178.195 37.3727 177.853 36.752C177.511 36.1187 177.055 35.6057 176.485 35.213C175.915 34.8203 175.212 34.624 174.376 34.624C173.552 34.624 172.856 34.8267 172.286 35.232C171.716 35.6373 171.253 36.163 170.899 36.809C170.557 37.455 170.31 38.1517 170.158 38.899C170.006 39.6337 169.93 40.343 169.93 41.027C169.93 41.7363 169.999 42.4647 170.139 43.212C170.278 43.9593 170.512 44.6497 170.842 45.283C171.184 45.9163 171.64 46.4293 172.21 46.822C172.792 47.2147 173.514 47.411 174.376 47.411C175.25 47.411 175.972 47.2147 176.542 46.822C177.112 46.4167 177.561 45.891 177.891 45.245C178.233 44.599 178.473 43.896 178.613 43.136C178.752 42.376 178.822 41.6413 178.822 40.932ZM181.159 40.837C181.159 42.243 180.899 43.4907 180.38 44.58C179.86 45.6693 179.094 46.5243 178.081 47.145C177.08 47.7657 175.845 48.076 174.376 48.076C172.957 48.076 171.741 47.7783 170.728 47.183C169.714 46.5877 168.935 45.758 168.391 44.694C167.859 43.63 167.593 42.4013 167.593 41.008C167.593 40.02 167.751 39.1017 168.068 38.253C168.397 37.3917 168.859 36.638 169.455 35.992C170.063 35.3333 170.778 34.8203 171.602 34.453C172.438 34.0857 173.362 33.902 174.376 33.902C175.794 33.902 177.01 34.1933 178.024 34.776C179.037 35.346 179.81 36.1503 180.342 37.189C180.886 38.2277 181.159 39.4437 181.159 40.837Z" fill="#3B3939"/>
<path d="M195.738 44.39C195.738 44.5293 195.7 44.6687 195.624 44.808C195.446 45.2133 195.18 45.5997 194.826 45.967C194.484 46.3343 194.129 46.6383 193.762 46.879C193.179 47.259 192.558 47.5313 191.9 47.696C191.254 47.848 190.582 47.924 189.886 47.924C188.518 47.924 187.333 47.639 186.333 47.069C185.332 46.499 184.559 45.7073 184.015 44.694C183.483 43.668 183.217 42.4773 183.217 41.122C183.217 39.7793 183.476 38.5697 183.996 37.493C184.528 36.4163 185.294 35.5613 186.295 34.928C187.295 34.2947 188.492 33.978 189.886 33.978C190.443 33.978 190.943 34.054 191.387 34.206C191.83 34.358 192.305 34.5227 192.812 34.7C193.09 34.7887 193.369 34.8583 193.648 34.909C193.939 34.947 194.23 34.9787 194.522 35.004C194.522 35.2827 194.534 35.5677 194.56 35.859C194.585 36.1377 194.623 36.4163 194.674 36.695C194.712 36.9483 194.762 37.208 194.826 37.474C194.889 37.7273 194.921 37.987 194.921 38.253C194.921 38.7217 194.68 38.956 194.199 38.956C194.085 38.956 194.002 38.9433 193.952 38.918C193.901 38.8927 193.85 38.8293 193.8 38.728C193.749 38.6013 193.705 38.4683 193.667 38.329C193.641 38.177 193.616 38.0377 193.591 37.911C193.489 37.5057 193.318 37.075 193.078 36.619C192.837 36.1503 192.552 35.7767 192.223 35.498C192.071 35.3713 191.849 35.2447 191.558 35.118C191.266 34.9787 190.969 34.8647 190.665 34.776C190.373 34.6747 190.126 34.624 189.924 34.624C189.569 34.624 189.202 34.7 188.822 34.852C188.442 34.9913 188.106 35.1687 187.815 35.384C187.245 35.8147 186.789 36.3403 186.447 36.961C186.117 37.5817 185.877 38.2467 185.725 38.956C185.585 39.6527 185.516 40.3493 185.516 41.046C185.516 41.7807 185.598 42.509 185.763 43.231C185.94 43.953 186.212 44.6053 186.58 45.188C186.96 45.758 187.447 46.2203 188.043 46.575C188.638 46.917 189.36 47.088 190.209 47.088C190.563 47.088 190.962 47.0373 191.406 46.936C191.849 46.822 192.229 46.7017 192.546 46.575C192.926 46.423 193.274 46.214 193.591 45.948C193.92 45.682 194.218 45.3907 194.484 45.074C194.56 44.9853 194.636 44.8967 194.712 44.808C194.788 44.7067 194.851 44.6053 194.902 44.504C194.927 44.4533 194.952 44.409 194.978 44.371C195.003 44.3203 195.035 44.276 195.073 44.238C195.149 44.162 195.256 44.124 195.396 44.124C195.472 44.124 195.548 44.1493 195.624 44.2C195.7 44.238 195.738 44.3013 195.738 44.39Z" fill="#3B3939"/>
<path d="M204.983 42.376C204.591 41.2867 204.204 40.1973 203.824 39.108C203.444 38.0187 203.058 36.9357 202.665 35.859C202.285 36.9357 201.905 38.0187 201.525 39.108C201.145 40.1973 200.772 41.2867 200.404 42.376H204.983ZM210.607 47.734C210.607 47.9367 210.512 48.038 210.322 48.038C210.196 48.038 210.056 48.0317 209.904 48.019C209.765 48.019 209.626 48.0127 209.486 48C209.208 47.9873 208.923 47.981 208.631 47.981C208.353 47.981 208.068 47.981 207.776 47.981C207.637 47.981 207.491 47.981 207.339 47.981C207.2 47.981 207.054 47.981 206.902 47.981C206.624 47.981 206.339 47.9937 206.047 48.019C205.756 48.057 205.465 48.076 205.173 48.076C205.085 48.076 205.021 48.0317 204.983 47.943C204.945 47.8417 204.926 47.753 204.926 47.677C204.926 47.6137 204.958 47.5567 205.021 47.506C205.085 47.4553 205.142 47.43 205.192 47.43L206.123 47.449C206.225 47.449 206.332 47.43 206.446 47.392C206.56 47.3413 206.617 47.2527 206.617 47.126C206.617 47.1007 206.573 46.9613 206.484 46.708C206.408 46.442 206.307 46.1253 206.18 45.758C206.054 45.3907 205.921 45.0233 205.781 44.656C205.642 44.276 205.522 43.9467 205.42 43.668C205.319 43.3767 205.249 43.1867 205.211 43.098H200.214C200.176 43.212 200.1 43.4147 199.986 43.706C199.885 43.9973 199.765 44.3267 199.625 44.694C199.486 45.0613 199.353 45.4287 199.226 45.796C199.1 46.1507 198.992 46.461 198.903 46.727C198.827 46.9803 198.789 47.1387 198.789 47.202C198.789 47.3667 198.878 47.468 199.055 47.506C199.245 47.544 199.397 47.563 199.511 47.563C199.651 47.563 199.784 47.5567 199.91 47.544C200.05 47.5187 200.183 47.506 200.309 47.506C200.423 47.506 200.487 47.5503 200.499 47.639C200.525 47.715 200.537 47.7973 200.537 47.886C200.512 47.962 200.468 48.0063 200.404 48.019C200.341 48.0317 200.278 48.038 200.214 48.038C199.847 48.038 199.473 48.0317 199.093 48.019C198.713 48.019 198.34 48.019 197.972 48.019C197.694 48.019 197.415 48.0253 197.136 48.038C196.87 48.0507 196.604 48.057 196.338 48.057C196.148 48.057 196.053 47.9557 196.053 47.753C196.053 47.639 196.11 47.5693 196.224 47.544C196.338 47.5187 196.465 47.5123 196.604 47.525C196.756 47.525 196.864 47.525 196.927 47.525C197.105 47.525 197.25 47.4743 197.364 47.373C197.478 47.2717 197.573 47.1513 197.649 47.012C197.7 46.898 197.82 46.594 198.01 46.1C198.213 45.606 198.454 44.9853 198.732 44.238C199.011 43.4907 199.309 42.6863 199.625 41.825C199.942 40.951 200.252 40.0897 200.556 39.241C200.873 38.3797 201.158 37.588 201.411 36.866C201.665 36.144 201.867 35.5487 202.019 35.08C202.171 34.6113 202.247 34.3453 202.247 34.282C202.247 34.2567 202.235 34.2313 202.209 34.206C202.197 34.168 202.19 34.1363 202.19 34.111C202.19 34.073 202.209 34.0477 202.247 34.035C202.539 33.9717 202.849 33.9337 203.178 33.921C203.508 33.8957 203.818 33.864 204.109 33.826L209.049 47.069C209.087 47.1703 209.163 47.259 209.277 47.335C209.404 47.3983 209.524 47.43 209.638 47.43C209.752 47.43 209.86 47.43 209.961 47.43C210.075 47.4173 210.189 47.411 210.303 47.411C210.443 47.411 210.525 47.4363 210.55 47.487C210.588 47.525 210.607 47.6073 210.607 47.734Z" fill="#3B3939"/>
<path d="M224.219 44.39C224.219 44.5293 224.181 44.6687 224.105 44.808C223.928 45.2133 223.662 45.5997 223.307 45.967C222.965 46.3343 222.61 46.6383 222.243 46.879C221.66 47.259 221.04 47.5313 220.381 47.696C219.735 47.848 219.064 47.924 218.367 47.924C216.999 47.924 215.815 47.639 214.814 47.069C213.813 46.499 213.041 45.7073 212.496 44.694C211.964 43.668 211.698 42.4773 211.698 41.122C211.698 39.7793 211.958 38.5697 212.477 37.493C213.009 36.4163 213.775 35.5613 214.776 34.928C215.777 34.2947 216.974 33.978 218.367 33.978C218.924 33.978 219.425 34.054 219.868 34.206C220.311 34.358 220.786 34.5227 221.293 34.7C221.572 34.7887 221.85 34.8583 222.129 34.909C222.42 34.947 222.712 34.9787 223.003 35.004C223.003 35.2827 223.016 35.5677 223.041 35.859C223.066 36.1377 223.104 36.4163 223.155 36.695C223.193 36.9483 223.244 37.208 223.307 37.474C223.37 37.7273 223.402 37.987 223.402 38.253C223.402 38.7217 223.161 38.956 222.68 38.956C222.566 38.956 222.484 38.9433 222.433 38.918C222.382 38.8927 222.332 38.8293 222.281 38.728C222.23 38.6013 222.186 38.4683 222.148 38.329C222.123 38.177 222.097 38.0377 222.072 37.911C221.971 37.5057 221.8 37.075 221.559 36.619C221.318 36.1503 221.033 35.7767 220.704 35.498C220.552 35.3713 220.33 35.2447 220.039 35.118C219.748 34.9787 219.45 34.8647 219.146 34.776C218.855 34.6747 218.608 34.624 218.405 34.624C218.05 34.624 217.683 34.7 217.303 34.852C216.923 34.9913 216.587 35.1687 216.296 35.384C215.726 35.8147 215.27 36.3403 214.928 36.961C214.599 37.5817 214.358 38.2467 214.206 38.956C214.067 39.6527 213.997 40.3493 213.997 41.046C213.997 41.7807 214.079 42.509 214.244 43.231C214.421 43.953 214.694 44.6053 215.061 45.188C215.441 45.758 215.929 46.2203 216.524 46.575C217.119 46.917 217.841 47.088 218.69 47.088C219.045 47.088 219.444 47.0373 219.887 46.936C220.33 46.822 220.71 46.7017 221.027 46.575C221.407 46.423 221.755 46.214 222.072 45.948C222.401 45.682 222.699 45.3907 222.965 45.074C223.041 44.9853 223.117 44.8967 223.193 44.808C223.269 44.7067 223.332 44.6053 223.383 44.504C223.408 44.4533 223.434 44.409 223.459 44.371C223.484 44.3203 223.516 44.276 223.554 44.238C223.63 44.162 223.738 44.124 223.877 44.124C223.953 44.124 224.029 44.1493 224.105 44.2C224.181 44.238 224.219 44.3013 224.219 44.39Z" fill="#3B3939"/>
<path d="M231.242 34.32C231.242 34.548 231.14 34.662 230.938 34.662C230.798 34.662 230.659 34.662 230.52 34.662C230.38 34.6493 230.241 34.643 230.102 34.643C229.975 34.643 229.836 34.6937 229.684 34.795C229.544 34.8837 229.475 35.004 229.475 35.156V46.974C229.475 47.126 229.538 47.24 229.665 47.316C229.791 47.3793 229.918 47.411 230.045 47.411C230.184 47.411 230.323 47.411 230.463 47.411C230.615 47.3983 230.76 47.392 230.9 47.392C231.102 47.392 231.204 47.4807 231.204 47.658C231.204 47.7593 231.191 47.848 231.166 47.924C231.14 47.9873 231.071 48.019 230.957 48.019C230.513 48.019 230.064 48.0063 229.608 47.981C229.164 47.943 228.715 47.924 228.259 47.924C228.056 47.924 227.847 47.9303 227.632 47.943C227.416 47.943 227.201 47.9493 226.986 47.962C226.77 47.9747 226.549 47.9937 226.321 48.019C226.105 48.0443 225.89 48.057 225.675 48.057C225.599 48.057 225.535 48.0253 225.485 47.962C225.434 47.886 225.409 47.81 225.409 47.734C225.409 47.6453 225.434 47.5693 225.485 47.506C225.548 47.4427 225.624 47.411 225.713 47.411C225.852 47.411 225.991 47.4173 226.131 47.43C226.283 47.43 226.435 47.43 226.587 47.43C226.713 47.43 226.865 47.3983 227.043 47.335C227.22 47.259 227.309 47.1387 227.309 46.974V35.137C227.309 34.909 227.207 34.7697 227.005 34.719C226.802 34.6557 226.574 34.6303 226.321 34.643C226.08 34.6557 225.89 34.662 225.751 34.662C225.573 34.662 225.485 34.5607 225.485 34.358C225.485 34.2567 225.491 34.1743 225.504 34.111C225.529 34.0477 225.605 34.016 225.732 34.016C226.137 34.016 226.542 34.0287 226.948 34.054C227.366 34.0793 227.777 34.092 228.183 34.092C228.474 34.092 228.759 34.092 229.038 34.092C229.329 34.092 229.614 34.0857 229.893 34.073C230.07 34.073 230.247 34.0667 230.425 34.054C230.615 34.0287 230.792 34.016 230.957 34.016C231.045 34.016 231.115 34.0477 231.166 34.111C231.216 34.1743 231.242 34.244 231.242 34.32Z" fill="#3B3939"/>
<path d="M241.313 42.376C240.921 41.2867 240.534 40.1973 240.154 39.108C239.774 38.0187 239.388 36.9357 238.995 35.859C238.615 36.9357 238.235 38.0187 237.855 39.108C237.475 40.1973 237.102 41.2867 236.734 42.376H241.313ZM246.937 47.734C246.937 47.9367 246.842 48.038 246.652 48.038C246.526 48.038 246.386 48.0317 246.234 48.019C246.095 48.019 245.956 48.0127 245.816 48C245.538 47.9873 245.253 47.981 244.961 47.981C244.683 47.981 244.398 47.981 244.106 47.981C243.967 47.981 243.821 47.981 243.669 47.981C243.53 47.981 243.384 47.981 243.232 47.981C242.954 47.981 242.669 47.9937 242.377 48.019C242.086 48.057 241.795 48.076 241.503 48.076C241.415 48.076 241.351 48.0317 241.313 47.943C241.275 47.8417 241.256 47.753 241.256 47.677C241.256 47.6137 241.288 47.5567 241.351 47.506C241.415 47.4553 241.472 47.43 241.522 47.43L242.453 47.449C242.555 47.449 242.662 47.43 242.776 47.392C242.89 47.3413 242.947 47.2527 242.947 47.126C242.947 47.1007 242.903 46.9613 242.814 46.708C242.738 46.442 242.637 46.1253 242.51 45.758C242.384 45.3907 242.251 45.0233 242.111 44.656C241.972 44.276 241.852 43.9467 241.75 43.668C241.649 43.3767 241.579 43.1867 241.541 43.098H236.544C236.506 43.212 236.43 43.4147 236.316 43.706C236.215 43.9973 236.095 44.3267 235.955 44.694C235.816 45.0613 235.683 45.4287 235.556 45.796C235.43 46.1507 235.322 46.461 235.233 46.727C235.157 46.9803 235.119 47.1387 235.119 47.202C235.119 47.3667 235.208 47.468 235.385 47.506C235.575 47.544 235.727 47.563 235.841 47.563C235.981 47.563 236.114 47.5567 236.24 47.544C236.38 47.5187 236.513 47.506 236.639 47.506C236.753 47.506 236.817 47.5503 236.829 47.639C236.855 47.715 236.867 47.7973 236.867 47.886C236.842 47.962 236.798 48.0063 236.734 48.019C236.671 48.0317 236.608 48.038 236.544 48.038C236.177 48.038 235.803 48.0317 235.423 48.019C235.043 48.019 234.67 48.019 234.302 48.019C234.024 48.019 233.745 48.0253 233.466 48.038C233.2 48.0507 232.934 48.057 232.668 48.057C232.478 48.057 232.383 47.9557 232.383 47.753C232.383 47.639 232.44 47.5693 232.554 47.544C232.668 47.5187 232.795 47.5123 232.934 47.525C233.086 47.525 233.194 47.525 233.257 47.525C233.435 47.525 233.58 47.4743 233.694 47.373C233.808 47.2717 233.903 47.1513 233.979 47.012C234.03 46.898 234.15 46.594 234.34 46.1C234.543 45.606 234.784 44.9853 235.062 44.238C235.341 43.4907 235.639 42.6863 235.955 41.825C236.272 40.951 236.582 40.0897 236.886 39.241C237.203 38.3797 237.488 37.588 237.741 36.866C237.995 36.144 238.197 35.5487 238.349 35.08C238.501 34.6113 238.577 34.3453 238.577 34.282C238.577 34.2567 238.565 34.2313 238.539 34.206C238.527 34.168 238.52 34.1363 238.52 34.111C238.52 34.073 238.539 34.0477 238.577 34.035C238.869 33.9717 239.179 33.9337 239.508 33.921C239.838 33.8957 240.148 33.864 240.439 33.826L245.379 47.069C245.417 47.1703 245.493 47.259 245.607 47.335C245.734 47.3983 245.854 47.43 245.968 47.43C246.082 47.43 246.19 47.43 246.291 47.43C246.405 47.4173 246.519 47.411 246.633 47.411C246.773 47.411 246.855 47.4363 246.88 47.487C246.918 47.525 246.937 47.6073 246.937 47.734Z" fill="#3B3939"/>
<path d="M264.121 44.694C264.121 44.922 264.096 45.1563 264.045 45.397C264.007 45.625 263.969 45.853 263.931 46.081C263.906 46.3343 263.887 46.594 263.874 46.86C263.861 47.1133 263.823 47.3667 263.76 47.62C263.747 47.7087 263.697 47.791 263.608 47.867C263.532 47.943 263.443 47.981 263.342 47.981C261.987 47.981 260.631 47.9747 259.276 47.962C257.921 47.9367 256.565 47.924 255.21 47.924C254.792 47.924 254.374 47.943 253.956 47.981C253.551 48.0063 253.145 48.019 252.74 48.019C252.664 48.019 252.582 48 252.493 47.962C252.404 47.9113 252.36 47.8417 252.36 47.753C252.36 47.5883 252.423 47.4807 252.55 47.43C252.677 47.3793 252.829 47.354 253.006 47.354C253.196 47.354 253.38 47.3413 253.557 47.316C253.734 47.2907 253.886 47.2147 254.013 47.088C254.14 46.9487 254.203 46.7207 254.203 46.404L254.184 35.593C254.184 35.3017 254.102 35.118 253.937 35.042C253.772 34.9533 253.57 34.909 253.329 34.909C253.228 34.909 253.12 34.9153 253.006 34.928C252.905 34.928 252.803 34.928 252.702 34.928C252.575 34.928 252.461 34.9027 252.36 34.852C252.259 34.8013 252.208 34.7063 252.208 34.567C252.208 34.2883 252.341 34.149 252.607 34.149C252.822 34.149 253.038 34.1553 253.253 34.168C253.468 34.1807 253.684 34.187 253.899 34.187C255.178 34.187 256.451 34.1807 257.718 34.168C258.997 34.1427 260.277 34.13 261.556 34.13C262.164 34.13 262.772 34.111 263.38 34.073C263.431 34.4403 263.494 34.814 263.57 35.194C263.646 35.5613 263.709 35.935 263.76 36.315C263.785 36.3783 263.804 36.448 263.817 36.524C263.83 36.6 263.836 36.6697 263.836 36.733C263.836 36.885 263.779 36.9927 263.665 37.056C263.564 37.1067 263.443 37.132 263.304 37.132C263.177 37.132 263.082 37.113 263.019 37.075C262.956 37.0243 262.899 36.9357 262.848 36.809C262.633 36.0743 262.329 35.5613 261.936 35.27C261.543 34.9787 260.961 34.833 260.188 34.833H256.35V40.419C256.831 40.4063 257.306 40.4 257.775 40.4C258.244 40.3873 258.712 40.3683 259.181 40.343C259.675 40.3177 260.156 40.2733 260.625 40.21C261.094 40.134 261.569 40.0517 262.05 39.963C262.063 39.963 262.069 39.963 262.069 39.963C262.082 39.963 262.094 39.963 262.107 39.963C262.145 39.963 262.196 39.9757 262.259 40.001C262.335 40.0263 262.373 40.0643 262.373 40.115C262.373 40.2037 262.329 40.362 262.24 40.59C262.164 40.818 262.107 40.97 262.069 41.046C261.98 41.2107 261.847 41.293 261.67 41.293C261.569 41.293 261.461 41.293 261.347 41.293C261.246 41.2803 261.144 41.2677 261.043 41.255C260.815 41.2297 260.587 41.2107 260.359 41.198C260.131 41.1853 259.903 41.1727 259.675 41.16C259.358 41.16 259.048 41.16 258.744 41.16C258.44 41.16 258.13 41.16 257.813 41.16C257.636 41.16 257.427 41.1727 257.186 41.198C256.958 41.2233 256.762 41.293 256.597 41.407C256.432 41.521 256.35 41.7047 256.35 41.958V46.499C256.35 46.8663 256.426 47.0943 256.578 47.183C256.743 47.259 256.983 47.297 257.3 47.297H258.953C259.295 47.297 259.675 47.278 260.093 47.24C260.524 47.202 260.935 47.126 261.328 47.012C261.733 46.898 262.063 46.7207 262.316 46.48C262.582 46.2267 262.785 45.9353 262.924 45.606C263.076 45.2767 263.228 44.9537 263.38 44.637C263.443 44.4977 263.57 44.428 263.76 44.428C263.849 44.428 263.931 44.447 264.007 44.485C264.083 44.523 264.121 44.5927 264.121 44.694Z" fill="#3B3939"/>
<path d="M130.987 70.376C130.594 69.2867 130.208 68.1973 129.828 67.108C129.448 66.0187 129.062 64.9357 128.669 63.859C128.289 64.9357 127.909 66.0187 127.529 67.108C127.149 68.1973 126.775 69.2867 126.408 70.376H130.987ZM136.611 75.734C136.611 75.9367 136.516 76.038 136.326 76.038C136.199 76.038 136.06 76.0317 135.908 76.019C135.769 76.019 135.629 76.0127 135.49 76C135.211 75.9873 134.926 75.981 134.635 75.981C134.356 75.981 134.071 75.981 133.78 75.981C133.641 75.981 133.495 75.981 133.343 75.981C133.204 75.981 133.058 75.981 132.906 75.981C132.627 75.981 132.342 75.9937 132.051 76.019C131.76 76.057 131.468 76.076 131.177 76.076C131.088 76.076 131.025 76.0317 130.987 75.943C130.949 75.8417 130.93 75.753 130.93 75.677C130.93 75.6137 130.962 75.5567 131.025 75.506C131.088 75.4553 131.145 75.43 131.196 75.43L132.127 75.449C132.228 75.449 132.336 75.43 132.45 75.392C132.564 75.3413 132.621 75.2527 132.621 75.126C132.621 75.1007 132.577 74.9613 132.488 74.708C132.412 74.442 132.311 74.1253 132.184 73.758C132.057 73.3907 131.924 73.0233 131.785 72.656C131.646 72.276 131.525 71.9467 131.424 71.668C131.323 71.3767 131.253 71.1867 131.215 71.098H126.218C126.18 71.212 126.104 71.4147 125.99 71.706C125.889 71.9973 125.768 72.3267 125.629 72.694C125.49 73.0613 125.357 73.4287 125.23 73.796C125.103 74.1507 124.996 74.461 124.907 74.727C124.831 74.9803 124.793 75.1387 124.793 75.202C124.793 75.3667 124.882 75.468 125.059 75.506C125.249 75.544 125.401 75.563 125.515 75.563C125.654 75.563 125.787 75.5567 125.914 75.544C126.053 75.5187 126.186 75.506 126.313 75.506C126.427 75.506 126.49 75.5503 126.503 75.639C126.528 75.715 126.541 75.7973 126.541 75.886C126.516 75.962 126.471 76.0063 126.408 76.019C126.345 76.0317 126.281 76.038 126.218 76.038C125.851 76.038 125.477 76.0317 125.097 76.019C124.717 76.019 124.343 76.019 123.976 76.019C123.697 76.019 123.419 76.0253 123.14 76.038C122.874 76.0507 122.608 76.057 122.342 76.057C122.152 76.057 122.057 75.9557 122.057 75.753C122.057 75.639 122.114 75.5693 122.228 75.544C122.342 75.5187 122.469 75.5123 122.608 75.525C122.76 75.525 122.868 75.525 122.931 75.525C123.108 75.525 123.254 75.4743 123.368 75.373C123.482 75.2717 123.577 75.1513 123.653 75.012C123.704 74.898 123.824 74.594 124.014 74.1C124.217 73.606 124.457 72.9853 124.736 72.238C125.015 71.4907 125.312 70.6863 125.629 69.825C125.946 68.951 126.256 68.0897 126.56 67.241C126.877 66.3797 127.162 65.588 127.415 64.866C127.668 64.144 127.871 63.5487 128.023 63.08C128.175 62.6113 128.251 62.3453 128.251 62.282C128.251 62.2567 128.238 62.2313 128.213 62.206C128.2 62.168 128.194 62.1363 128.194 62.111C128.194 62.073 128.213 62.0477 128.251 62.035C128.542 61.9717 128.853 61.9337 129.182 61.921C129.511 61.8957 129.822 61.864 130.113 61.826L135.053 75.069C135.091 75.1703 135.167 75.259 135.281 75.335C135.408 75.3983 135.528 75.43 135.642 75.43C135.756 75.43 135.864 75.43 135.965 75.43C136.079 75.4173 136.193 75.411 136.307 75.411C136.446 75.411 136.529 75.4363 136.554 75.487C136.592 75.525 136.611 75.6073 136.611 75.734Z" fill="#3B3939"/>
<path d="M147.392 72.352C147.392 73.074 147.221 73.682 146.879 74.176C146.55 74.6573 146.113 75.0437 145.568 75.335C145.023 75.6263 144.428 75.8353 143.782 75.962C143.149 76.076 142.534 76.133 141.939 76.133C141.559 76.133 141.179 76.1013 140.799 76.038C140.419 75.9747 140.045 75.8797 139.678 75.753C139.399 75.6517 139.121 75.5377 138.842 75.411C138.576 75.2717 138.297 75.1767 138.006 75.126C137.955 74.7713 137.898 74.423 137.835 74.081C137.772 73.7263 137.708 73.3717 137.645 73.017C137.632 72.9157 137.613 72.8207 137.588 72.732C137.575 72.6433 137.569 72.5547 137.569 72.466C137.569 72.2507 137.613 72.0987 137.702 72.01C137.791 71.9213 137.949 71.877 138.177 71.877C138.367 71.877 138.5 71.915 138.576 71.991C138.652 72.067 138.709 72.1937 138.747 72.371C138.899 73.0043 139.076 73.5553 139.279 74.024C139.494 74.4927 139.805 74.8537 140.21 75.107C140.615 75.3477 141.185 75.468 141.92 75.468C142.857 75.468 143.63 75.2463 144.238 74.803C144.859 74.3597 145.169 73.6313 145.169 72.618C145.169 72.1367 145.049 71.725 144.808 71.383C144.567 71.0283 144.263 70.7243 143.896 70.471C143.541 70.2177 143.174 70.0023 142.794 69.825C142.401 69.6097 142.002 69.407 141.597 69.217C141.204 69.027 140.805 68.8307 140.4 68.628C140.007 68.438 139.602 68.191 139.184 67.887C138.766 67.5703 138.411 67.2093 138.12 66.804C137.841 66.386 137.702 65.9363 137.702 65.455C137.702 64.619 137.924 63.935 138.367 63.403C138.81 62.871 139.374 62.4783 140.058 62.225C140.755 61.9717 141.47 61.845 142.205 61.845C142.686 61.845 143.13 61.8957 143.535 61.997C143.953 62.0983 144.384 62.2313 144.827 62.396C145.068 62.4847 145.308 62.548 145.549 62.586C145.79 62.624 146.03 62.6557 146.271 62.681C146.309 63.061 146.347 63.4473 146.385 63.84C146.423 64.22 146.48 64.5937 146.556 64.961C146.569 65.0117 146.581 65.0623 146.594 65.113C146.607 65.1637 146.613 65.2207 146.613 65.284C146.613 65.4993 146.531 65.6387 146.366 65.702C146.201 65.7653 146.03 65.797 145.853 65.797C145.802 65.797 145.733 65.7907 145.644 65.778C145.568 65.7653 145.511 65.7337 145.473 65.683C145.448 65.6577 145.429 65.6133 145.416 65.55C145.403 65.4867 145.397 65.436 145.397 65.398C145.232 64.4227 144.897 63.6753 144.39 63.156C143.883 62.6367 143.111 62.377 142.072 62.377C141.312 62.377 140.723 62.586 140.305 63.004C139.887 63.422 139.678 64.011 139.678 64.771C139.678 65.2903 139.817 65.7337 140.096 66.101C140.375 66.4683 140.742 66.785 141.198 67.051C141.654 67.317 142.154 67.5703 142.699 67.811C143.256 68.039 143.807 68.2797 144.352 68.533C144.909 68.7863 145.416 69.084 145.872 69.426C146.328 69.7553 146.695 70.1607 146.974 70.642C147.253 71.1107 147.392 71.6807 147.392 72.352Z" fill="#3B3939"/>
<path d="M158.673 72.352C158.673 73.074 158.502 73.682 158.16 74.176C157.831 74.6573 157.394 75.0437 156.849 75.335C156.305 75.6263 155.709 75.8353 155.063 75.962C154.43 76.076 153.816 76.133 153.22 76.133C152.84 76.133 152.46 76.1013 152.08 76.038C151.7 75.9747 151.327 75.8797 150.959 75.753C150.681 75.6517 150.402 75.5377 150.123 75.411C149.857 75.2717 149.579 75.1767 149.287 75.126C149.237 74.7713 149.18 74.423 149.116 74.081C149.053 73.7263 148.99 73.3717 148.926 73.017C148.914 72.9157 148.895 72.8207 148.869 72.732C148.857 72.6433 148.85 72.5547 148.85 72.466C148.85 72.2507 148.895 72.0987 148.983 72.01C149.072 71.9213 149.23 71.877 149.458 71.877C149.648 71.877 149.781 71.915 149.857 71.991C149.933 72.067 149.99 72.1937 150.028 72.371C150.18 73.0043 150.358 73.5553 150.56 74.024C150.776 74.4927 151.086 74.8537 151.491 75.107C151.897 75.3477 152.467 75.468 153.201 75.468C154.139 75.468 154.911 75.2463 155.519 74.803C156.14 74.3597 156.45 73.6313 156.45 72.618C156.45 72.1367 156.33 71.725 156.089 71.383C155.849 71.0283 155.545 70.7243 155.177 70.471C154.823 70.2177 154.455 70.0023 154.075 69.825C153.683 69.6097 153.284 69.407 152.878 69.217C152.486 69.027 152.087 68.8307 151.681 68.628C151.289 68.438 150.883 68.191 150.465 67.887C150.047 67.5703 149.693 67.2093 149.401 66.804C149.123 66.386 148.983 65.9363 148.983 65.455C148.983 64.619 149.205 63.935 149.648 63.403C150.092 62.871 150.655 62.4783 151.339 62.225C152.036 61.9717 152.752 61.845 153.486 61.845C153.968 61.845 154.411 61.8957 154.816 61.997C155.234 62.0983 155.665 62.2313 156.108 62.396C156.349 62.4847 156.59 62.548 156.83 62.586C157.071 62.624 157.312 62.6557 157.552 62.681C157.59 63.061 157.628 63.4473 157.666 63.84C157.704 64.22 157.761 64.5937 157.837 64.961C157.85 65.0117 157.863 65.0623 157.875 65.113C157.888 65.1637 157.894 65.2207 157.894 65.284C157.894 65.4993 157.812 65.6387 157.647 65.702C157.483 65.7653 157.312 65.797 157.134 65.797C157.084 65.797 157.014 65.7907 156.925 65.778C156.849 65.7653 156.792 65.7337 156.754 65.683C156.729 65.6577 156.71 65.6133 156.697 65.55C156.685 65.4867 156.678 65.436 156.678 65.398C156.514 64.4227 156.178 63.6753 155.671 63.156C155.165 62.6367 154.392 62.377 153.353 62.377C152.593 62.377 152.004 62.586 151.586 63.004C151.168 63.422 150.959 64.011 150.959 64.771C150.959 65.2903 151.099 65.7337 151.377 66.101C151.656 66.4683 152.023 66.785 152.479 67.051C152.935 67.317 153.436 67.5703 153.98 67.811C154.538 68.039 155.089 68.2797 155.633 68.533C156.191 68.7863 156.697 69.084 157.153 69.426C157.609 69.7553 157.977 70.1607 158.255 70.642C158.534 71.1107 158.673 71.6807 158.673 72.352Z" fill="#3B3939"/>
<path d="M171.607 72.694C171.607 72.922 171.582 73.1563 171.531 73.397C171.493 73.625 171.455 73.853 171.417 74.081C171.392 74.3343 171.373 74.594 171.36 74.86C171.348 75.1133 171.31 75.3667 171.246 75.62C171.234 75.7087 171.183 75.791 171.094 75.867C171.018 75.943 170.93 75.981 170.828 75.981C169.473 75.981 168.118 75.9747 166.762 75.962C165.407 75.9367 164.052 75.924 162.696 75.924C162.278 75.924 161.86 75.943 161.442 75.981C161.037 76.0063 160.632 76.019 160.226 76.019C160.15 76.019 160.068 76 159.979 75.962C159.891 75.9113 159.846 75.8417 159.846 75.753C159.846 75.5883 159.91 75.4807 160.036 75.43C160.163 75.3793 160.315 75.354 160.492 75.354C160.682 75.354 160.866 75.3413 161.043 75.316C161.221 75.2907 161.373 75.2147 161.499 75.088C161.626 74.9487 161.689 74.7207 161.689 74.404L161.67 63.593C161.67 63.3017 161.588 63.118 161.423 63.042C161.259 62.9533 161.056 62.909 160.815 62.909C160.714 62.909 160.606 62.9153 160.492 62.928C160.391 62.928 160.29 62.928 160.188 62.928C160.062 62.928 159.948 62.9027 159.846 62.852C159.745 62.8013 159.694 62.7063 159.694 62.567C159.694 62.2883 159.827 62.149 160.093 62.149C160.309 62.149 160.524 62.1553 160.739 62.168C160.955 62.1807 161.17 62.187 161.385 62.187C162.665 62.187 163.938 62.1807 165.204 62.168C166.484 62.1427 167.763 62.13 169.042 62.13C169.65 62.13 170.258 62.111 170.866 62.073C170.917 62.4403 170.98 62.814 171.056 63.194C171.132 63.5613 171.196 63.935 171.246 64.315C171.272 64.3783 171.291 64.448 171.303 64.524C171.316 64.6 171.322 64.6697 171.322 64.733C171.322 64.885 171.265 64.9927 171.151 65.056C171.05 65.1067 170.93 65.132 170.79 65.132C170.664 65.132 170.569 65.113 170.505 65.075C170.442 65.0243 170.385 64.9357 170.334 64.809C170.119 64.0743 169.815 63.5613 169.422 63.27C169.03 62.9787 168.447 62.833 167.674 62.833H163.836V68.419C164.318 68.4063 164.793 68.4 165.261 68.4C165.73 68.3873 166.199 68.3683 166.667 68.343C167.161 68.3177 167.643 68.2733 168.111 68.21C168.58 68.134 169.055 68.0517 169.536 67.963C169.549 67.963 169.555 67.963 169.555 67.963C169.568 67.963 169.581 67.963 169.593 67.963C169.631 67.963 169.682 67.9757 169.745 68.001C169.821 68.0263 169.859 68.0643 169.859 68.115C169.859 68.2037 169.815 68.362 169.726 68.59C169.65 68.818 169.593 68.97 169.555 69.046C169.467 69.2107 169.334 69.293 169.156 69.293C169.055 69.293 168.947 69.293 168.833 69.293C168.732 69.2803 168.631 69.2677 168.529 69.255C168.301 69.2297 168.073 69.2107 167.845 69.198C167.617 69.1853 167.389 69.1727 167.161 69.16C166.845 69.16 166.534 69.16 166.23 69.16C165.926 69.16 165.616 69.16 165.299 69.16C165.122 69.16 164.913 69.1727 164.672 69.198C164.444 69.2233 164.248 69.293 164.083 69.407C163.919 69.521 163.836 69.7047 163.836 69.958V74.499C163.836 74.8663 163.912 75.0943 164.064 75.183C164.229 75.259 164.47 75.297 164.786 75.297H166.439C166.781 75.297 167.161 75.278 167.579 75.24C168.01 75.202 168.422 75.126 168.814 75.012C169.22 74.898 169.549 74.7207 169.802 74.48C170.068 74.2267 170.271 73.9353 170.41 73.606C170.562 73.2767 170.714 72.9537 170.866 72.637C170.93 72.4977 171.056 72.428 171.246 72.428C171.335 72.428 171.417 72.447 171.493 72.485C171.569 72.523 171.607 72.5927 171.607 72.694Z" fill="#3B3939"/>
<path d="M182.757 72.352C182.757 73.074 182.586 73.682 182.244 74.176C181.915 74.6573 181.478 75.0437 180.933 75.335C180.389 75.6263 179.793 75.8353 179.147 75.962C178.514 76.076 177.9 76.133 177.304 76.133C176.924 76.133 176.544 76.1013 176.164 76.038C175.784 75.9747 175.411 75.8797 175.043 75.753C174.765 75.6517 174.486 75.5377 174.207 75.411C173.941 75.2717 173.663 75.1767 173.371 75.126C173.321 74.7713 173.264 74.423 173.2 74.081C173.137 73.7263 173.074 73.3717 173.01 73.017C172.998 72.9157 172.979 72.8207 172.953 72.732C172.941 72.6433 172.934 72.5547 172.934 72.466C172.934 72.2507 172.979 72.0987 173.067 72.01C173.156 71.9213 173.314 71.877 173.542 71.877C173.732 71.877 173.865 71.915 173.941 71.991C174.017 72.067 174.074 72.1937 174.112 72.371C174.264 73.0043 174.442 73.5553 174.644 74.024C174.86 74.4927 175.17 74.8537 175.575 75.107C175.981 75.3477 176.551 75.468 177.285 75.468C178.223 75.468 178.995 75.2463 179.603 74.803C180.224 74.3597 180.534 73.6313 180.534 72.618C180.534 72.1367 180.414 71.725 180.173 71.383C179.933 71.0283 179.629 70.7243 179.261 70.471C178.907 70.2177 178.539 70.0023 178.159 69.825C177.767 69.6097 177.368 69.407 176.962 69.217C176.57 69.027 176.171 68.8307 175.765 68.628C175.373 68.438 174.967 68.191 174.549 67.887C174.131 67.5703 173.777 67.2093 173.485 66.804C173.207 66.386 173.067 65.9363 173.067 65.455C173.067 64.619 173.289 63.935 173.732 63.403C174.176 62.871 174.739 62.4783 175.423 62.225C176.12 61.9717 176.836 61.845 177.57 61.845C178.052 61.845 178.495 61.8957 178.9 61.997C179.318 62.0983 179.749 62.2313 180.192 62.396C180.433 62.4847 180.674 62.548 180.914 62.586C181.155 62.624 181.396 62.6557 181.636 62.681C181.674 63.061 181.712 63.4473 181.75 63.84C181.788 64.22 181.845 64.5937 181.921 64.961C181.934 65.0117 181.947 65.0623 181.959 65.113C181.972 65.1637 181.978 65.2207 181.978 65.284C181.978 65.4993 181.896 65.6387 181.731 65.702C181.567 65.7653 181.396 65.797 181.218 65.797C181.168 65.797 181.098 65.7907 181.009 65.778C180.933 65.7653 180.876 65.7337 180.838 65.683C180.813 65.6577 180.794 65.6133 180.781 65.55C180.769 65.4867 180.762 65.436 180.762 65.398C180.598 64.4227 180.262 63.6753 179.755 63.156C179.249 62.6367 178.476 62.377 177.437 62.377C176.677 62.377 176.088 62.586 175.67 63.004C175.252 63.422 175.043 64.011 175.043 64.771C175.043 65.2903 175.183 65.7337 175.461 66.101C175.74 66.4683 176.107 66.785 176.563 67.051C177.019 67.317 177.52 67.5703 178.064 67.811C178.622 68.039 179.173 68.2797 179.717 68.533C180.275 68.7863 180.781 69.084 181.237 69.426C181.693 69.7553 182.061 70.1607 182.339 70.642C182.618 71.1107 182.757 71.6807 182.757 72.352Z" fill="#3B3939"/>
<path d="M194.038 72.352C194.038 73.074 193.867 73.682 193.525 74.176C193.196 74.6573 192.759 75.0437 192.214 75.335C191.67 75.6263 191.074 75.8353 190.428 75.962C189.795 76.076 189.181 76.133 188.585 76.133C188.205 76.133 187.825 76.1013 187.445 76.038C187.065 75.9747 186.692 75.8797 186.324 75.753C186.046 75.6517 185.767 75.5377 185.488 75.411C185.222 75.2717 184.944 75.1767 184.652 75.126C184.602 74.7713 184.545 74.423 184.481 74.081C184.418 73.7263 184.355 73.3717 184.291 73.017C184.279 72.9157 184.26 72.8207 184.234 72.732C184.222 72.6433 184.215 72.5547 184.215 72.466C184.215 72.2507 184.26 72.0987 184.348 72.01C184.437 71.9213 184.595 71.877 184.823 71.877C185.013 71.877 185.146 71.915 185.222 71.991C185.298 72.067 185.355 72.1937 185.393 72.371C185.545 73.0043 185.723 73.5553 185.925 74.024C186.141 74.4927 186.451 74.8537 186.856 75.107C187.262 75.3477 187.832 75.468 188.566 75.468C189.504 75.468 190.276 75.2463 190.884 74.803C191.505 74.3597 191.815 73.6313 191.815 72.618C191.815 72.1367 191.695 71.725 191.454 71.383C191.214 71.0283 190.91 70.7243 190.542 70.471C190.188 70.2177 189.82 70.0023 189.44 69.825C189.048 69.6097 188.649 69.407 188.243 69.217C187.851 69.027 187.452 68.8307 187.046 68.628C186.654 68.438 186.248 68.191 185.83 67.887C185.412 67.5703 185.058 67.2093 184.766 66.804C184.488 66.386 184.348 65.9363 184.348 65.455C184.348 64.619 184.57 63.935 185.013 63.403C185.457 62.871 186.02 62.4783 186.704 62.225C187.401 61.9717 188.117 61.845 188.851 61.845C189.333 61.845 189.776 61.8957 190.181 61.997C190.599 62.0983 191.03 62.2313 191.473 62.396C191.714 62.4847 191.955 62.548 192.195 62.586C192.436 62.624 192.677 62.6557 192.917 62.681C192.955 63.061 192.993 63.4473 193.031 63.84C193.069 64.22 193.126 64.5937 193.202 64.961C193.215 65.0117 193.228 65.0623 193.24 65.113C193.253 65.1637 193.259 65.2207 193.259 65.284C193.259 65.4993 193.177 65.6387 193.012 65.702C192.848 65.7653 192.677 65.797 192.499 65.797C192.449 65.797 192.379 65.7907 192.29 65.778C192.214 65.7653 192.157 65.7337 192.119 65.683C192.094 65.6577 192.075 65.6133 192.062 65.55C192.05 65.4867 192.043 65.436 192.043 65.398C191.879 64.4227 191.543 63.6753 191.036 63.156C190.53 62.6367 189.757 62.377 188.718 62.377C187.958 62.377 187.369 62.586 186.951 63.004C186.533 63.422 186.324 64.011 186.324 64.771C186.324 65.2903 186.464 65.7337 186.742 66.101C187.021 66.4683 187.388 66.785 187.844 67.051C188.3 67.317 188.801 67.5703 189.345 67.811C189.903 68.039 190.454 68.2797 190.998 68.533C191.556 68.7863 192.062 69.084 192.518 69.426C192.974 69.7553 193.342 70.1607 193.62 70.642C193.899 71.1107 194.038 71.6807 194.038 72.352Z" fill="#3B3939"/>
<path d="M206.821 68.932C206.821 68.2353 206.745 67.5197 206.593 66.785C206.441 66.0503 206.194 65.3727 205.852 64.752C205.51 64.1187 205.054 63.6057 204.484 63.213C203.914 62.8203 203.211 62.624 202.375 62.624C201.551 62.624 200.855 62.8267 200.285 63.232C199.715 63.6373 199.252 64.163 198.898 64.809C198.556 65.455 198.309 66.1517 198.157 66.899C198.005 67.6337 197.929 68.343 197.929 69.027C197.929 69.7363 197.998 70.4647 198.138 71.212C198.277 71.9593 198.511 72.6497 198.841 73.283C199.183 73.9163 199.639 74.4293 200.209 74.822C200.791 75.2147 201.513 75.411 202.375 75.411C203.249 75.411 203.971 75.2147 204.541 74.822C205.111 74.4167 205.56 73.891 205.89 73.245C206.232 72.599 206.472 71.896 206.612 71.136C206.751 70.376 206.821 69.6413 206.821 68.932ZM209.158 68.837C209.158 70.243 208.898 71.4907 208.379 72.58C207.859 73.6693 207.093 74.5243 206.08 75.145C205.079 75.7657 203.844 76.076 202.375 76.076C200.956 76.076 199.74 75.7783 198.727 75.183C197.713 74.5877 196.934 73.758 196.39 72.694C195.858 71.63 195.592 70.4013 195.592 69.008C195.592 68.02 195.75 67.1017 196.067 66.253C196.396 65.3917 196.858 64.638 197.454 63.992C198.062 63.3333 198.777 62.8203 199.601 62.453C200.437 62.0857 201.361 61.902 202.375 61.902C203.793 61.902 205.009 62.1933 206.023 62.776C207.036 63.346 207.809 64.1503 208.341 65.189C208.885 66.2277 209.158 67.4437 209.158 68.837Z" fill="#3B3939"/>
<path d="M219.443 65.455C219.443 64.6317 219.297 64.0173 219.006 63.612C218.714 63.194 218.303 62.9153 217.771 62.776C217.251 62.6367 216.631 62.567 215.909 62.567C215.782 62.567 215.611 62.5733 215.396 62.586C215.193 62.586 215.003 62.624 214.826 62.7C214.661 62.7633 214.579 62.89 214.579 63.08C214.579 63.9287 214.572 64.7773 214.56 65.626C214.56 66.462 214.56 67.3107 214.56 68.172V68.305C214.699 68.343 214.845 68.3683 214.997 68.381C215.149 68.381 215.294 68.381 215.434 68.381C216.105 68.381 216.745 68.305 217.353 68.153C217.961 67.9883 218.461 67.697 218.854 67.279C219.246 66.861 219.443 66.253 219.443 65.455ZM223.851 75.715C223.851 75.8163 223.756 75.8987 223.566 75.962C223.388 76.0127 223.167 76.0443 222.901 76.057C222.647 76.0823 222.407 76.095 222.179 76.095C221.951 76.095 221.799 76.095 221.723 76.095C221.191 76.095 220.76 76.038 220.431 75.924C220.101 75.81 219.791 75.5187 219.5 75.05C218.879 74.0493 218.284 73.036 217.714 72.01C217.144 70.9713 216.574 69.9327 216.004 68.894L214.579 68.951C214.579 69.9517 214.579 70.9587 214.579 71.972C214.579 72.9727 214.579 73.9733 214.579 74.974C214.579 75.1387 214.636 75.2527 214.75 75.316C214.876 75.3793 215.009 75.411 215.149 75.411C215.326 75.411 215.497 75.4047 215.662 75.392C215.839 75.3793 216.01 75.373 216.175 75.373C216.263 75.373 216.333 75.4173 216.384 75.506C216.434 75.582 216.46 75.658 216.46 75.734C216.46 75.8607 216.415 75.943 216.327 75.981C216.238 76.0063 216.143 76.019 216.042 76.019C215.472 76.019 214.902 76.0127 214.332 76C213.774 75.9873 213.211 75.981 212.641 75.981C212.349 75.981 212.052 75.9873 211.748 76C211.456 76.0253 211.159 76.038 210.855 76.038C210.779 76.038 210.709 76 210.646 75.924C210.582 75.848 210.551 75.772 210.551 75.696C210.551 75.506 210.665 75.411 210.893 75.411C211.007 75.411 211.114 75.4173 211.216 75.43C211.33 75.43 211.437 75.43 211.539 75.43C211.716 75.43 211.9 75.411 212.09 75.373C212.28 75.3223 212.387 75.1893 212.413 74.974C212.438 74.6447 212.444 74.271 212.432 73.853C212.432 73.435 212.432 73.055 212.432 72.713C212.432 72.295 212.432 71.877 212.432 71.459C212.432 71.0283 212.432 70.604 212.432 70.186C212.432 69.3247 212.432 68.4633 212.432 67.602C212.432 66.7407 212.432 65.8857 212.432 65.037C212.432 64.7077 212.432 64.3783 212.432 64.049C212.444 63.7197 212.438 63.3967 212.413 63.08C212.4 62.8647 212.311 62.738 212.147 62.7C211.982 62.662 211.811 62.643 211.634 62.643C211.545 62.643 211.444 62.6493 211.33 62.662C211.228 62.662 211.127 62.662 211.026 62.662C210.76 62.662 210.627 62.5353 210.627 62.282C210.627 62.1807 210.658 62.1173 210.722 62.092C210.785 62.054 210.861 62.035 210.95 62.035C211.38 62.035 211.805 62.054 212.223 62.092C212.653 62.1173 213.084 62.13 213.515 62.13C214.11 62.13 214.699 62.1047 215.282 62.054C215.864 62.0033 216.447 61.978 217.03 61.978C217.524 61.978 218.043 62.0287 218.588 62.13C219.145 62.2187 219.664 62.3833 220.146 62.624C220.627 62.852 221.02 63.1687 221.324 63.574C221.628 63.9793 221.78 64.486 221.78 65.094C221.78 65.8667 221.564 66.5253 221.134 67.07C220.703 67.6147 220.152 68.039 219.481 68.343C219.253 68.457 219.012 68.5457 218.759 68.609C218.518 68.6597 218.271 68.7103 218.018 68.761C218.613 69.749 219.221 70.7307 219.842 71.706C220.462 72.6687 221.102 73.6187 221.761 74.556C221.938 74.7967 222.134 74.9993 222.35 75.164C222.565 75.3287 222.825 75.4427 223.129 75.506C223.192 75.5187 223.281 75.525 223.395 75.525C223.509 75.5123 223.61 75.5187 223.699 75.544C223.8 75.5693 223.851 75.6263 223.851 75.715Z" fill="#3B3939"/>
<path d="M230.425 62.32C230.425 62.548 230.324 62.662 230.121 62.662C229.982 62.662 229.843 62.662 229.703 62.662C229.564 62.6493 229.425 62.643 229.285 62.643C229.159 62.643 229.019 62.6937 228.867 62.795C228.728 62.8837 228.658 63.004 228.658 63.156V74.974C228.658 75.126 228.722 75.24 228.848 75.316C228.975 75.3793 229.102 75.411 229.228 75.411C229.368 75.411 229.507 75.411 229.646 75.411C229.798 75.3983 229.944 75.392 230.083 75.392C230.286 75.392 230.387 75.4807 230.387 75.658C230.387 75.7593 230.375 75.848 230.349 75.924C230.324 75.9873 230.254 76.019 230.14 76.019C229.697 76.019 229.247 76.0063 228.791 75.981C228.348 75.943 227.898 75.924 227.442 75.924C227.24 75.924 227.031 75.9303 226.815 75.943C226.6 75.943 226.385 75.9493 226.169 75.962C225.954 75.9747 225.732 75.9937 225.504 76.019C225.289 76.0443 225.074 76.057 224.858 76.057C224.782 76.057 224.719 76.0253 224.668 75.962C224.618 75.886 224.592 75.81 224.592 75.734C224.592 75.6453 224.618 75.5693 224.668 75.506C224.732 75.4427 224.808 75.411 224.896 75.411C225.036 75.411 225.175 75.4173 225.314 75.43C225.466 75.43 225.618 75.43 225.77 75.43C225.897 75.43 226.049 75.3983 226.226 75.335C226.404 75.259 226.492 75.1387 226.492 74.974V63.137C226.492 62.909 226.391 62.7697 226.188 62.719C225.986 62.6557 225.758 62.6303 225.504 62.643C225.264 62.6557 225.074 62.662 224.934 62.662C224.757 62.662 224.668 62.5607 224.668 62.358C224.668 62.2567 224.675 62.1743 224.687 62.111C224.713 62.0477 224.789 62.016 224.915 62.016C225.321 62.016 225.726 62.0287 226.131 62.054C226.549 62.0793 226.961 62.092 227.366 62.092C227.658 62.092 227.943 62.092 228.221 62.092C228.513 62.092 228.798 62.0857 229.076 62.073C229.254 62.073 229.431 62.0667 229.608 62.054C229.798 62.0287 229.976 62.016 230.14 62.016C230.229 62.016 230.299 62.0477 230.349 62.111C230.4 62.1743 230.425 62.244 230.425 62.32Z" fill="#3B3939"/>
<path d="M240.497 70.376C240.104 69.2867 239.718 68.1973 239.338 67.108C238.958 66.0187 238.572 64.9357 238.179 63.859C237.799 64.9357 237.419 66.0187 237.039 67.108C236.659 68.1973 236.285 69.2867 235.918 70.376H240.497ZM246.121 75.734C246.121 75.9367 246.026 76.038 245.836 76.038C245.709 76.038 245.57 76.0317 245.418 76.019C245.279 76.019 245.139 76.0127 245 76C244.721 75.9873 244.436 75.981 244.145 75.981C243.866 75.981 243.581 75.981 243.29 75.981C243.151 75.981 243.005 75.981 242.853 75.981C242.714 75.981 242.568 75.981 242.416 75.981C242.137 75.981 241.852 75.9937 241.561 76.019C241.27 76.057 240.978 76.076 240.687 76.076C240.598 76.076 240.535 76.0317 240.497 75.943C240.459 75.8417 240.44 75.753 240.44 75.677C240.44 75.6137 240.472 75.5567 240.535 75.506C240.598 75.4553 240.655 75.43 240.706 75.43L241.637 75.449C241.738 75.449 241.846 75.43 241.96 75.392C242.074 75.3413 242.131 75.2527 242.131 75.126C242.131 75.1007 242.087 74.9613 241.998 74.708C241.922 74.442 241.821 74.1253 241.694 73.758C241.567 73.3907 241.434 73.0233 241.295 72.656C241.156 72.276 241.035 71.9467 240.934 71.668C240.833 71.3767 240.763 71.1867 240.725 71.098H235.728C235.69 71.212 235.614 71.4147 235.5 71.706C235.399 71.9973 235.278 72.3267 235.139 72.694C235 73.0613 234.867 73.4287 234.74 73.796C234.613 74.1507 234.506 74.461 234.417 74.727C234.341 74.9803 234.303 75.1387 234.303 75.202C234.303 75.3667 234.392 75.468 234.569 75.506C234.759 75.544 234.911 75.563 235.025 75.563C235.164 75.563 235.297 75.5567 235.424 75.544C235.563 75.5187 235.696 75.506 235.823 75.506C235.937 75.506 236 75.5503 236.013 75.639C236.038 75.715 236.051 75.7973 236.051 75.886C236.026 75.962 235.981 76.0063 235.918 76.019C235.855 76.0317 235.791 76.038 235.728 76.038C235.361 76.038 234.987 76.0317 234.607 76.019C234.227 76.019 233.853 76.019 233.486 76.019C233.207 76.019 232.929 76.0253 232.65 76.038C232.384 76.0507 232.118 76.057 231.852 76.057C231.662 76.057 231.567 75.9557 231.567 75.753C231.567 75.639 231.624 75.5693 231.738 75.544C231.852 75.5187 231.979 75.5123 232.118 75.525C232.27 75.525 232.378 75.525 232.441 75.525C232.618 75.525 232.764 75.4743 232.878 75.373C232.992 75.2717 233.087 75.1513 233.163 75.012C233.214 74.898 233.334 74.594 233.524 74.1C233.727 73.606 233.967 72.9853 234.246 72.238C234.525 71.4907 234.822 70.6863 235.139 69.825C235.456 68.951 235.766 68.0897 236.07 67.241C236.387 66.3797 236.672 65.588 236.925 64.866C237.178 64.144 237.381 63.5487 237.533 63.08C237.685 62.6113 237.761 62.3453 237.761 62.282C237.761 62.2567 237.748 62.2313 237.723 62.206C237.71 62.168 237.704 62.1363 237.704 62.111C237.704 62.073 237.723 62.0477 237.761 62.035C238.052 61.9717 238.363 61.9337 238.692 61.921C239.021 61.8957 239.332 61.864 239.623 61.826L244.563 75.069C244.601 75.1703 244.677 75.259 244.791 75.335C244.918 75.3983 245.038 75.43 245.152 75.43C245.266 75.43 245.374 75.43 245.475 75.43C245.589 75.4173 245.703 75.411 245.817 75.411C245.956 75.411 246.039 75.4363 246.064 75.487C246.102 75.525 246.121 75.6073 246.121 75.734Z" fill="#3B3939"/>
<path d="M259.562 62.358C259.562 62.4593 259.53 62.5543 259.467 62.643C259.403 62.719 259.321 62.757 259.22 62.757C259.042 62.757 258.865 62.7507 258.688 62.738C258.51 62.7253 258.333 62.719 258.156 62.719C257.991 62.719 257.833 62.7697 257.681 62.871C257.529 62.9597 257.44 63.0927 257.415 63.27C257.402 63.3713 257.396 63.4727 257.396 63.574C257.408 63.6753 257.415 63.7767 257.415 63.878C257.402 64.524 257.396 65.17 257.396 65.816C257.396 66.462 257.396 67.108 257.396 67.754C257.396 68.7927 257.396 69.8313 257.396 70.87C257.396 71.9087 257.396 72.9473 257.396 73.986C257.396 74.7587 257.326 75.4807 257.187 76.152C257.06 76.836 256.832 77.4313 256.503 77.938C256.173 78.4573 255.717 78.8627 255.135 79.154C254.552 79.4453 253.817 79.591 252.931 79.591C252.703 79.591 252.418 79.5783 252.076 79.553C251.734 79.5403 251.385 79.4897 251.031 79.401C250.689 79.325 250.404 79.192 250.176 79.002C249.935 78.8247 249.815 78.5713 249.815 78.242C249.815 77.9 249.96 77.6213 250.252 77.406C250.53 77.1907 250.828 77.083 251.145 77.083C251.271 77.083 251.423 77.1147 251.601 77.178C251.791 77.254 251.962 77.349 252.114 77.463C252.266 77.5897 252.342 77.7227 252.342 77.862C252.291 77.9127 252.24 77.9633 252.19 78.014C252.152 78.0773 252.133 78.147 252.133 78.223C252.133 78.4637 252.221 78.641 252.399 78.755C252.576 78.869 252.772 78.926 252.988 78.926C253.279 78.926 253.57 78.8627 253.862 78.736C254.153 78.6093 254.406 78.432 254.622 78.204C254.837 77.976 254.97 77.7163 255.021 77.425C255.097 77.0197 255.135 76.6143 255.135 76.209C255.147 75.8037 255.154 75.4047 255.154 75.012C255.154 73.4793 255.154 71.953 255.154 70.433C255.154 68.913 255.154 67.393 255.154 65.873C255.154 65.4423 255.154 65.0117 255.154 64.581C255.154 64.1503 255.147 63.7197 255.135 63.289C255.135 63.1117 255.065 62.985 254.926 62.909C254.799 62.833 254.647 62.7887 254.47 62.776C254.305 62.7507 254.153 62.738 254.014 62.738C253.874 62.738 253.735 62.7443 253.596 62.757C253.456 62.7697 253.317 62.776 253.178 62.776C253.089 62.776 253.007 62.738 252.931 62.662C252.855 62.5733 252.817 62.4847 252.817 62.396C252.817 62.2947 252.848 62.2123 252.912 62.149C252.988 62.073 253.076 62.035 253.178 62.035C253.317 62.035 253.45 62.0413 253.577 62.054C253.703 62.0667 253.83 62.073 253.957 62.073C254.324 62.0857 254.691 62.0983 255.059 62.111C255.426 62.111 255.793 62.111 256.161 62.111C256.68 62.111 257.193 62.0983 257.7 62.073C258.219 62.035 258.732 62.016 259.239 62.016C259.34 62.016 259.416 62.054 259.467 62.13C259.53 62.1933 259.562 62.2693 259.562 62.358Z" fill="#3B3939"/>
<path d="M273.87 62.358C273.87 62.4847 273.832 62.567 273.756 62.605C273.692 62.6303 273.61 62.643 273.509 62.643C273.433 62.643 273.35 62.643 273.262 62.643C273.186 62.6303 273.103 62.624 273.015 62.624C272.66 62.624 272.419 62.6747 272.293 62.776C272.179 62.8773 272.122 63.023 272.122 63.213C272.122 63.403 272.122 63.6437 272.122 63.935C272.122 65.0623 272.128 66.1897 272.141 67.317C272.166 68.4317 272.179 69.5527 272.179 70.68C272.179 71.7947 272.014 72.7637 271.685 73.587C271.355 74.3977 270.83 75.0247 270.108 75.468C269.398 75.9113 268.448 76.133 267.258 76.133C265.56 76.133 264.218 75.715 263.23 74.879C262.254 74.0303 261.767 72.7257 261.767 70.965V70.129C261.767 69.4197 261.767 68.7167 261.767 68.02C261.767 67.3107 261.767 66.6077 261.767 65.911V64.201C261.767 64.0237 261.773 63.84 261.786 63.65C261.798 63.4473 261.792 63.2573 261.767 63.08C261.754 62.8773 261.653 62.7507 261.463 62.7C261.285 62.6367 261.083 62.6113 260.855 62.624C260.627 62.624 260.443 62.624 260.304 62.624C260.177 62.624 260.095 62.5987 260.057 62.548C260.031 62.4847 260.019 62.4023 260.019 62.301C260.019 62.1997 260.057 62.13 260.133 62.092C260.209 62.054 260.291 62.035 260.38 62.035C260.519 62.035 260.658 62.0413 260.798 62.054C260.937 62.054 261.07 62.0603 261.197 62.073C261.475 62.0857 261.748 62.0983 262.014 62.111C262.292 62.111 262.571 62.111 262.85 62.111C263.293 62.111 263.736 62.0983 264.18 62.073C264.623 62.0477 265.06 62.035 265.491 62.035C265.592 62.035 265.681 62.054 265.757 62.092C265.833 62.13 265.871 62.2123 265.871 62.339C265.871 62.5417 265.763 62.643 265.548 62.643C265.396 62.643 265.244 62.643 265.092 62.643C264.94 62.6303 264.781 62.624 264.617 62.624C264.49 62.624 264.351 62.6683 264.199 62.757C264.059 62.833 263.977 62.9407 263.952 63.08C263.926 63.2827 263.914 63.5043 263.914 63.745C263.926 63.973 263.933 64.1947 263.933 64.41C263.933 65.55 263.926 66.69 263.914 67.83C263.901 68.97 263.895 70.11 263.895 71.25C263.895 72.124 263.977 72.8713 264.142 73.492C264.306 74.1127 264.636 74.5877 265.13 74.917C265.636 75.2337 266.377 75.392 267.353 75.392C268.303 75.392 269.056 75.183 269.614 74.765C270.184 74.347 270.595 73.7897 270.849 73.093C271.102 72.3837 271.229 71.6047 271.229 70.756C271.229 69.4767 271.222 68.1973 271.21 66.918C271.21 65.6387 271.21 64.3657 271.21 63.099C271.21 62.9343 271.134 62.8203 270.982 62.757C270.83 62.681 270.684 62.643 270.545 62.643C270.38 62.643 270.222 62.6493 270.07 62.662C269.918 62.662 269.759 62.662 269.595 62.662C269.531 62.662 269.474 62.6303 269.424 62.567C269.386 62.5037 269.367 62.4403 269.367 62.377C269.367 62.149 269.474 62.035 269.69 62.035C269.867 62.035 270.044 62.0477 270.222 62.073C270.412 62.0857 270.602 62.092 270.792 62.092C271.108 62.092 271.419 62.092 271.723 62.092C272.039 62.0793 272.356 62.0667 272.673 62.054C272.825 62.054 272.977 62.0477 273.129 62.035C273.293 62.0223 273.458 62.016 273.623 62.016C273.724 62.016 273.787 62.054 273.813 62.13C273.851 62.1933 273.87 62.2693 273.87 62.358Z" fill="#3B3939"/>
<path d="M283.215 65.455C283.215 64.6317 283.069 64.0173 282.778 63.612C282.487 63.194 282.075 62.9153 281.543 62.776C281.024 62.6367 280.403 62.567 279.681 62.567C279.554 62.567 279.383 62.5733 279.168 62.586C278.965 62.586 278.775 62.624 278.598 62.7C278.433 62.7633 278.351 62.89 278.351 63.08C278.351 63.9287 278.345 64.7773 278.332 65.626C278.332 66.462 278.332 67.3107 278.332 68.172V68.305C278.471 68.343 278.617 68.3683 278.769 68.381C278.921 68.381 279.067 68.381 279.206 68.381C279.877 68.381 280.517 68.305 281.125 68.153C281.733 67.9883 282.233 67.697 282.626 67.279C283.019 66.861 283.215 66.253 283.215 65.455ZM287.623 75.715C287.623 75.8163 287.528 75.8987 287.338 75.962C287.161 76.0127 286.939 76.0443 286.673 76.057C286.42 76.0823 286.179 76.095 285.951 76.095C285.723 76.095 285.571 76.095 285.495 76.095C284.963 76.095 284.532 76.038 284.203 75.924C283.874 75.81 283.563 75.5187 283.272 75.05C282.651 74.0493 282.056 73.036 281.486 72.01C280.916 70.9713 280.346 69.9327 279.776 68.894L278.351 68.951C278.351 69.9517 278.351 70.9587 278.351 71.972C278.351 72.9727 278.351 73.9733 278.351 74.974C278.351 75.1387 278.408 75.2527 278.522 75.316C278.649 75.3793 278.782 75.411 278.921 75.411C279.098 75.411 279.269 75.4047 279.434 75.392C279.611 75.3793 279.782 75.373 279.947 75.373C280.036 75.373 280.105 75.4173 280.156 75.506C280.207 75.582 280.232 75.658 280.232 75.734C280.232 75.8607 280.188 75.943 280.099 75.981C280.01 76.0063 279.915 76.019 279.814 76.019C279.244 76.019 278.674 76.0127 278.104 76C277.547 75.9873 276.983 75.981 276.413 75.981C276.122 75.981 275.824 75.9873 275.52 76C275.229 76.0253 274.931 76.038 274.627 76.038C274.551 76.038 274.481 76 274.418 75.924C274.355 75.848 274.323 75.772 274.323 75.696C274.323 75.506 274.437 75.411 274.665 75.411C274.779 75.411 274.887 75.4173 274.988 75.43C275.102 75.43 275.21 75.43 275.311 75.43C275.488 75.43 275.672 75.411 275.862 75.373C276.052 75.3223 276.16 75.1893 276.185 74.974C276.21 74.6447 276.217 74.271 276.204 73.853C276.204 73.435 276.204 73.055 276.204 72.713C276.204 72.295 276.204 71.877 276.204 71.459C276.204 71.0283 276.204 70.604 276.204 70.186C276.204 69.3247 276.204 68.4633 276.204 67.602C276.204 66.7407 276.204 65.8857 276.204 65.037C276.204 64.7077 276.204 64.3783 276.204 64.049C276.217 63.7197 276.21 63.3967 276.185 63.08C276.172 62.8647 276.084 62.738 275.919 62.7C275.754 62.662 275.583 62.643 275.406 62.643C275.317 62.643 275.216 62.6493 275.102 62.662C275.001 62.662 274.899 62.662 274.798 62.662C274.532 62.662 274.399 62.5353 274.399 62.282C274.399 62.1807 274.431 62.1173 274.494 62.092C274.557 62.054 274.633 62.035 274.722 62.035C275.153 62.035 275.577 62.054 275.995 62.092C276.426 62.1173 276.856 62.13 277.287 62.13C277.882 62.13 278.471 62.1047 279.054 62.054C279.637 62.0033 280.219 61.978 280.802 61.978C281.296 61.978 281.815 62.0287 282.36 62.13C282.917 62.2187 283.437 62.3833 283.918 62.624C284.399 62.852 284.792 63.1687 285.096 63.574C285.4 63.9793 285.552 64.486 285.552 65.094C285.552 65.8667 285.337 66.5253 284.906 67.07C284.475 67.6147 283.924 68.039 283.253 68.343C283.025 68.457 282.784 68.5457 282.531 68.609C282.29 68.6597 282.043 68.7103 281.79 68.761C282.385 69.749 282.993 70.7307 283.614 71.706C284.235 72.6687 284.874 73.6187 285.533 74.556C285.71 74.7967 285.907 74.9993 286.122 75.164C286.337 75.3287 286.597 75.4427 286.901 75.506C286.964 75.5187 287.053 75.525 287.167 75.525C287.281 75.5123 287.382 75.5187 287.471 75.544C287.572 75.5693 287.623 75.6263 287.623 75.715Z" fill="#3B3939"/>
<path d="M294.198 62.32C294.198 62.548 294.096 62.662 293.894 62.662C293.754 62.662 293.615 62.662 293.476 62.662C293.336 62.6493 293.197 62.643 293.058 62.643C292.931 62.643 292.792 62.6937 292.64 62.795C292.5 62.8837 292.431 63.004 292.431 63.156V74.974C292.431 75.126 292.494 75.24 292.621 75.316C292.747 75.3793 292.874 75.411 293.001 75.411C293.14 75.411 293.279 75.411 293.419 75.411C293.571 75.3983 293.716 75.392 293.856 75.392C294.058 75.392 294.16 75.4807 294.16 75.658C294.16 75.7593 294.147 75.848 294.122 75.924C294.096 75.9873 294.027 76.019 293.913 76.019C293.469 76.019 293.02 76.0063 292.564 75.981C292.12 75.943 291.671 75.924 291.215 75.924C291.012 75.924 290.803 75.9303 290.588 75.943C290.372 75.943 290.157 75.9493 289.942 75.962C289.726 75.9747 289.505 75.9937 289.277 76.019C289.061 76.0443 288.846 76.057 288.631 76.057C288.555 76.057 288.491 76.0253 288.441 75.962C288.39 75.886 288.365 75.81 288.365 75.734C288.365 75.6453 288.39 75.5693 288.441 75.506C288.504 75.4427 288.58 75.411 288.669 75.411C288.808 75.411 288.947 75.4173 289.087 75.43C289.239 75.43 289.391 75.43 289.543 75.43C289.669 75.43 289.821 75.3983 289.999 75.335C290.176 75.259 290.265 75.1387 290.265 74.974V63.137C290.265 62.909 290.163 62.7697 289.961 62.719C289.758 62.6557 289.53 62.6303 289.277 62.643C289.036 62.6557 288.846 62.662 288.707 62.662C288.529 62.662 288.441 62.5607 288.441 62.358C288.441 62.2567 288.447 62.1743 288.46 62.111C288.485 62.0477 288.561 62.016 288.688 62.016C289.093 62.016 289.498 62.0287 289.904 62.054C290.322 62.0793 290.733 62.092 291.139 62.092C291.43 62.092 291.715 62.092 291.994 62.092C292.285 62.092 292.57 62.0857 292.849 62.073C293.026 62.073 293.203 62.0667 293.381 62.054C293.571 62.0287 293.748 62.016 293.913 62.016C294.001 62.016 294.071 62.0477 294.122 62.111C294.172 62.1743 294.198 62.244 294.198 62.32ZM293.97 60.211L288.916 61.199L288.65 60.287L293.609 58.843L293.97 60.211Z" fill="#3B3939"/>
<path d="M307.689 68.818C307.689 68.2987 307.639 67.7477 307.537 67.165C307.436 66.5697 307.271 65.9997 307.043 65.455C306.815 64.9103 306.511 64.4543 306.131 64.087C305.789 63.745 305.378 63.4537 304.896 63.213C304.428 62.9597 303.953 62.8077 303.471 62.757C303.332 62.7317 303.186 62.719 303.034 62.719C302.882 62.719 302.73 62.719 302.578 62.719C301.666 62.719 300.742 62.738 299.804 62.776V74.385C299.804 74.7397 299.912 74.974 300.127 75.088C300.355 75.202 300.621 75.259 300.925 75.259C301.419 75.259 301.926 75.24 302.445 75.202C302.965 75.164 303.471 75.0753 303.965 74.936C304.459 74.7967 304.909 74.575 305.314 74.271C306.188 73.625 306.803 72.8143 307.157 71.839C307.512 70.8637 307.689 69.8567 307.689 68.818ZM310.026 68.552C310.026 69.806 309.76 70.9967 309.228 72.124C308.696 73.2387 307.886 74.1317 306.796 74.803C306.353 75.0817 305.834 75.3097 305.238 75.487C304.656 75.6517 304.06 75.7783 303.452 75.867C302.844 75.943 302.274 75.981 301.742 75.981C301.299 75.981 300.849 75.9683 300.393 75.943C299.937 75.905 299.481 75.886 299.025 75.886C298.658 75.886 298.284 75.8923 297.904 75.905C297.537 75.9177 297.17 75.9367 296.802 75.962C296.739 75.962 296.669 75.9683 296.593 75.981C296.53 75.981 296.467 75.981 296.403 75.981C296.315 75.981 296.245 75.9493 296.194 75.886C296.144 75.81 296.118 75.734 296.118 75.658C296.118 75.5693 296.182 75.506 296.308 75.468C296.448 75.43 296.6 75.3983 296.764 75.373C296.929 75.335 297.043 75.297 297.106 75.259C297.322 75.1577 297.461 74.9993 297.524 74.784C297.6 74.556 297.638 74.3343 297.638 74.119C297.638 73.4223 297.638 72.7257 297.638 72.029C297.651 71.3323 297.657 70.6357 297.657 69.939C297.657 69.1157 297.651 68.2987 297.638 67.488C297.638 66.6647 297.638 65.8477 297.638 65.037C297.638 64.7963 297.645 64.5557 297.657 64.315C297.67 64.0743 297.664 63.8337 297.638 63.593C297.626 63.4157 297.581 63.2573 297.505 63.118C297.442 62.966 297.309 62.8647 297.106 62.814C296.967 62.7887 296.802 62.7823 296.612 62.795C296.435 62.795 296.27 62.795 296.118 62.795C296.017 62.795 295.916 62.7697 295.814 62.719C295.726 62.6683 295.681 62.5797 295.681 62.453C295.681 62.225 295.814 62.111 296.08 62.111C296.372 62.111 296.663 62.1237 296.954 62.149C297.246 62.1743 297.537 62.187 297.828 62.187C298.766 62.187 299.697 62.1553 300.621 62.092C301.559 62.0287 302.49 61.997 303.414 61.997C304.782 61.997 305.96 62.263 306.948 62.795C307.936 63.3143 308.696 64.0617 309.228 65.037C309.76 66.0123 310.026 67.184 310.026 68.552Z" fill="#3B3939"/>
<path d="M317.651 62.32C317.651 62.548 317.549 62.662 317.347 62.662C317.207 62.662 317.068 62.662 316.929 62.662C316.789 62.6493 316.65 62.643 316.511 62.643C316.384 62.643 316.245 62.6937 316.093 62.795C315.953 62.8837 315.884 63.004 315.884 63.156V74.974C315.884 75.126 315.947 75.24 316.074 75.316C316.2 75.3793 316.327 75.411 316.454 75.411C316.593 75.411 316.732 75.411 316.872 75.411C317.024 75.3983 317.169 75.392 317.309 75.392C317.511 75.392 317.613 75.4807 317.613 75.658C317.613 75.7593 317.6 75.848 317.575 75.924C317.549 75.9873 317.48 76.019 317.366 76.019C316.922 76.019 316.473 76.0063 316.017 75.981C315.573 75.943 315.124 75.924 314.668 75.924C314.465 75.924 314.256 75.9303 314.041 75.943C313.825 75.943 313.61 75.9493 313.395 75.962C313.179 75.9747 312.958 75.9937 312.73 76.019C312.514 76.0443 312.299 76.057 312.084 76.057C312.008 76.057 311.944 76.0253 311.894 75.962C311.843 75.886 311.818 75.81 311.818 75.734C311.818 75.6453 311.843 75.5693 311.894 75.506C311.957 75.4427 312.033 75.411 312.122 75.411C312.261 75.411 312.4 75.4173 312.54 75.43C312.692 75.43 312.844 75.43 312.996 75.43C313.122 75.43 313.274 75.3983 313.452 75.335C313.629 75.259 313.718 75.1387 313.718 74.974V63.137C313.718 62.909 313.616 62.7697 313.414 62.719C313.211 62.6557 312.983 62.6303 312.73 62.643C312.489 62.6557 312.299 62.662 312.16 62.662C311.982 62.662 311.894 62.5607 311.894 62.358C311.894 62.2567 311.9 62.1743 311.913 62.111C311.938 62.0477 312.014 62.016 312.141 62.016C312.546 62.016 312.951 62.0287 313.357 62.054C313.775 62.0793 314.186 62.092 314.592 62.092C314.883 62.092 315.168 62.092 315.447 62.092C315.738 62.092 316.023 62.0857 316.302 62.073C316.479 62.073 316.656 62.0667 316.834 62.054C317.024 62.0287 317.201 62.016 317.366 62.016C317.454 62.016 317.524 62.0477 317.575 62.111C317.625 62.1743 317.651 62.244 317.651 62.32Z" fill="#3B3939"/>
<path d="M332.244 72.39C332.244 72.5293 332.206 72.6687 332.13 72.808C331.953 73.2133 331.687 73.5997 331.332 73.967C330.99 74.3343 330.636 74.6383 330.268 74.879C329.686 75.259 329.065 75.5313 328.406 75.696C327.76 75.848 327.089 75.924 326.392 75.924C325.024 75.924 323.84 75.639 322.839 75.069C321.839 74.499 321.066 73.7073 320.521 72.694C319.989 71.668 319.723 70.4773 319.723 69.122C319.723 67.7793 319.983 66.5697 320.502 65.493C321.034 64.4163 321.801 63.5613 322.801 62.928C323.802 62.2947 324.999 61.978 326.392 61.978C326.95 61.978 327.45 62.054 327.893 62.206C328.337 62.358 328.812 62.5227 329.318 62.7C329.597 62.7887 329.876 62.8583 330.154 62.909C330.446 62.947 330.737 62.9787 331.028 63.004C331.028 63.2827 331.041 63.5677 331.066 63.859C331.092 64.1377 331.13 64.4163 331.18 64.695C331.218 64.9483 331.269 65.208 331.332 65.474C331.396 65.7273 331.427 65.987 331.427 66.253C331.427 66.7217 331.187 66.956 330.705 66.956C330.591 66.956 330.509 66.9433 330.458 66.918C330.408 66.8927 330.357 66.8293 330.306 66.728C330.256 66.6013 330.211 66.4683 330.173 66.329C330.148 66.177 330.123 66.0377 330.097 65.911C329.996 65.5057 329.825 65.075 329.584 64.619C329.344 64.1503 329.059 63.7767 328.729 63.498C328.577 63.3713 328.356 63.2447 328.064 63.118C327.773 62.9787 327.475 62.8647 327.171 62.776C326.88 62.6747 326.633 62.624 326.43 62.624C326.076 62.624 325.708 62.7 325.328 62.852C324.948 62.9913 324.613 63.1687 324.321 63.384C323.751 63.8147 323.295 64.3403 322.953 64.961C322.624 65.5817 322.383 66.2467 322.231 66.956C322.092 67.6527 322.022 68.3493 322.022 69.046C322.022 69.7807 322.105 70.509 322.269 71.231C322.447 71.953 322.719 72.6053 323.086 73.188C323.466 73.758 323.954 74.2203 324.549 74.575C325.145 74.917 325.867 75.088 326.715 75.088C327.07 75.088 327.469 75.0373 327.912 74.936C328.356 74.822 328.736 74.7017 329.052 74.575C329.432 74.423 329.781 74.214 330.097 73.948C330.427 73.682 330.724 73.3907 330.99 73.074C331.066 72.9853 331.142 72.8967 331.218 72.808C331.294 72.7067 331.358 72.6053 331.408 72.504C331.434 72.4533 331.459 72.409 331.484 72.371C331.51 72.3203 331.541 72.276 331.579 72.238C331.655 72.162 331.763 72.124 331.902 72.124C331.978 72.124 332.054 72.1493 332.13 72.2C332.206 72.238 332.244 72.3013 332.244 72.39Z" fill="#3B3939"/>
<path d="M341.49 70.376C341.097 69.2867 340.711 68.1973 340.331 67.108C339.951 66.0187 339.565 64.9357 339.172 63.859C338.792 64.9357 338.412 66.0187 338.032 67.108C337.652 68.1973 337.278 69.2867 336.911 70.376H341.49ZM347.114 75.734C347.114 75.9367 347.019 76.038 346.829 76.038C346.702 76.038 346.563 76.0317 346.411 76.019C346.272 76.019 346.132 76.0127 345.993 76C345.714 75.9873 345.429 75.981 345.138 75.981C344.859 75.981 344.574 75.981 344.283 75.981C344.144 75.981 343.998 75.981 343.846 75.981C343.707 75.981 343.561 75.981 343.409 75.981C343.13 75.981 342.845 75.9937 342.554 76.019C342.263 76.057 341.971 76.076 341.68 76.076C341.591 76.076 341.528 76.0317 341.49 75.943C341.452 75.8417 341.433 75.753 341.433 75.677C341.433 75.6137 341.465 75.5567 341.528 75.506C341.591 75.4553 341.648 75.43 341.699 75.43L342.63 75.449C342.731 75.449 342.839 75.43 342.953 75.392C343.067 75.3413 343.124 75.2527 343.124 75.126C343.124 75.1007 343.08 74.9613 342.991 74.708C342.915 74.442 342.814 74.1253 342.687 73.758C342.56 73.3907 342.427 73.0233 342.288 72.656C342.149 72.276 342.028 71.9467 341.927 71.668C341.826 71.3767 341.756 71.1867 341.718 71.098H336.721C336.683 71.212 336.607 71.4147 336.493 71.706C336.392 71.9973 336.271 72.3267 336.132 72.694C335.993 73.0613 335.86 73.4287 335.733 73.796C335.606 74.1507 335.499 74.461 335.41 74.727C335.334 74.9803 335.296 75.1387 335.296 75.202C335.296 75.3667 335.385 75.468 335.562 75.506C335.752 75.544 335.904 75.563 336.018 75.563C336.157 75.563 336.29 75.5567 336.417 75.544C336.556 75.5187 336.689 75.506 336.816 75.506C336.93 75.506 336.993 75.5503 337.006 75.639C337.031 75.715 337.044 75.7973 337.044 75.886C337.019 75.962 336.974 76.0063 336.911 76.019C336.848 76.0317 336.784 76.038 336.721 76.038C336.354 76.038 335.98 76.0317 335.6 76.019C335.22 76.019 334.846 76.019 334.479 76.019C334.2 76.019 333.922 76.0253 333.643 76.038C333.377 76.0507 333.111 76.057 332.845 76.057C332.655 76.057 332.56 75.9557 332.56 75.753C332.56 75.639 332.617 75.5693 332.731 75.544C332.845 75.5187 332.972 75.5123 333.111 75.525C333.263 75.525 333.371 75.525 333.434 75.525C333.611 75.525 333.757 75.4743 333.871 75.373C333.985 75.2717 334.08 75.1513 334.156 75.012C334.207 74.898 334.327 74.594 334.517 74.1C334.72 73.606 334.96 72.9853 335.239 72.238C335.518 71.4907 335.815 70.6863 336.132 69.825C336.449 68.951 336.759 68.0897 337.063 67.241C337.38 66.3797 337.665 65.588 337.918 64.866C338.171 64.144 338.374 63.5487 338.526 63.08C338.678 62.6113 338.754 62.3453 338.754 62.282C338.754 62.2567 338.741 62.2313 338.716 62.206C338.703 62.168 338.697 62.1363 338.697 62.111C338.697 62.073 338.716 62.0477 338.754 62.035C339.045 61.9717 339.356 61.9337 339.685 61.921C340.014 61.8957 340.325 61.864 340.616 61.826L345.556 75.069C345.594 75.1703 345.67 75.259 345.784 75.335C345.911 75.3983 346.031 75.43 346.145 75.43C346.259 75.43 346.367 75.43 346.468 75.43C346.582 75.4173 346.696 75.411 346.81 75.411C346.949 75.411 347.032 75.4363 347.057 75.487C347.095 75.525 347.114 75.6073 347.114 75.734Z" fill="#3B3939"/>
<path d="M104 8C104 7.44772 104.448 7 105 7C105.552 7 106 7.44772 106 8V83C106 83.5523 105.552 84 105 84C104.448 84 104 83.5523 104 83V8Z" fill="#3B3939"/>
</svg>
